<?xml version="1.0" encoding="utf-8"?>
<!-- Generator: Adobe Illustrator 23.0.6, SVG Export Plug-In . SVG Version: 6.00 Build 0)  -->
<svg version="1.1" id="Layer_1" xmlns="http://www.w3.org/2000/svg" xmlns:xlink="http://www.w3.org/1999/xlink" x="0px" y="0px"
	 viewBox="0 0 234.6 84.6" style="enable-background:new 0 0 234.6 84.6;" xml:space="preserve">
<style type="text/css">
	.st0{fill:#F57E27;}
	.st1{fill:#FFCF37;}
	.st2{fill:#6B644E;}
	.st3{fill:#010101;}
</style>
<path class="st0" d="M52.5,84V54.2h2.3v2.7c1.8-2,4.3-3.1,7.1-3.1c2.4,0,4.6,0.9,6.2,2.2c2.2,1.9,3.6,4.7,3.6,8
	c0,3.5-1.6,6.5-4.1,8.3c-1.9,1.4-4,1.8-5.8,1.8c-3,0-5.5-1.3-6.9-3.2v13H52.5z M54.9,67.6c1.5,2.7,4.1,4.3,7,4.3
	c1.7,0,3.2-0.6,4.4-1.5c1.9-1.3,3.1-3.7,3.1-6.4c0-2.5-1-4.8-2.7-6.2c-1.4-1.1-3.1-1.7-4.7-1.7c-3.6,0-6.2,2.5-7,3.9V67.6z"/>
<path class="st0" d="M87,56.2c-0.3,0-1,0-1.2,0c-2.6,0-5.1,1.8-6.1,4.3v13.3h-2.4V54.2h2.4v2.6c0.9-1.4,3.1-3,6.2-3
	c0.3,0,1.2,0,1.5,0.1L87,56.2z"/>
<path class="st0" d="M93.5,45.3c1.2,0,2.2,1,2.2,2.2c0,1.2-1,2.1-2.2,2.1c-1.2,0-2.1-0.9-2.1-2.1C91.4,46.3,92.3,45.3,93.5,45.3
	 M92.3,54.2h2.4v19.5h-2.4V54.2z"/>
<path class="st0" d="M108.1,73.7L99,54.2h2.6l7.2,15.6l7.2-15.6h2.6l-9,19.5H108.1z"/>
<path class="st0" d="M124.1,45.3c1.2,0,2.2,1,2.2,2.2c0,1.2-1,2.1-2.2,2.1c-1.2,0-2.1-0.9-2.1-2.1C122,46.3,122.9,45.3,124.1,45.3
	 M122.9,54.2h2.4v19.5h-2.4V54.2z"/>
<path class="st0" d="M132.6,43.4h2.4v30.3h-2.4V43.4z"/>
<path class="st0" d="M158.4,70.6c-1.5,1.8-4.2,3.6-8,3.6c-5.5,0-9.8-4.1-9.8-10.2c0-5.6,3.8-10.2,9.3-10.2c5.2,0,9.1,4.1,9.1,9.5
	c0,0.2,0,0.5,0,0.9h-15.9c0.2,4.1,2.9,7.6,7.4,7.6c2.6,0,4.7-1,6.2-2.9L158.4,70.6z M143.2,62h13.3c-0.5-3.4-3.2-5.9-6.5-5.9
	C146.5,56.1,143.9,58.6,143.2,62"/>
<path class="st0" d="M181.3,79.9c-1.4,2.6-4.2,4.5-8.5,4.5c-3.7,0-6.9-1.7-8.8-4.7l1.9-1.4c1.5,2.3,3.8,3.8,7,3.8
	c3.3,0,5.3-1.4,6.3-3.3c0.6-1.2,0.8-2.6,0.8-5v-2.8c-1.5,1.9-3.9,3.2-6.9,3.2c-1.8,0-3.9-0.5-5.8-1.8c-2.6-1.8-4.1-4.8-4.1-8.3
	c0-3.2,1.4-6.1,3.6-8c1.6-1.3,3.8-2.2,6.2-2.2c2.8,0,5.4,1.2,7.1,3.1v-2.7h2.3v19.4C182.4,76.5,182.1,78.4,181.3,79.9 M180,60
	c-0.9-1.5-3.4-3.9-7-3.9c-1.6,0-3.3,0.6-4.7,1.7c-1.7,1.4-2.7,3.7-2.7,6.2c0,2.7,1.2,5.1,3.1,6.4c1.2,0.9,2.7,1.5,4.4,1.5
	c2.9,0,5.4-1.6,7-4.3V60z"/>
<path class="st0" d="M205.7,70.6c-1.5,1.8-4.2,3.6-8,3.6c-5.5,0-9.8-4.1-9.8-10.2c0-5.6,3.8-10.2,9.3-10.2c5.2,0,9.1,4.1,9.1,9.5
	c0,0.2,0,0.5,0,0.9h-15.9c0.2,4.1,2.9,7.6,7.4,7.6c2.6,0,4.7-1,6.2-2.9L205.7,70.6z M190.5,62h13.3c-0.5-3.4-3.2-5.9-6.5-5.9
	C193.8,56.1,191.2,58.6,190.5,62"/>
<path class="st0" d="M211.5,69.5c1.7,1.4,3.7,2.4,5.9,2.4c2.4,0,4.5-1.4,4.5-3.4c0-5-11.2-2.3-11.2-8.9c0-3.5,3.3-5.7,6.6-5.7
	c2.6,0,4.8,0.9,6.3,1.9l-1.3,2c-1.7-1.1-2.9-1.6-4.9-1.6c-2.1,0-4.3,1.1-4.3,3.3c0,4.3,11.2,2,11.2,8.8c0,3.6-3.1,5.9-6.8,5.9
	c-3.2,0-5.9-1.2-7.6-2.8L211.5,69.5z"/>
<path class="st1" d="M39.4,0.7v2.6c0,9.3-7.6,16.8-16.9,16.8h0V0.7H39.4z"/>
<path class="st1" d="M22.5,40.8v-2.6c0-9.3,7.6-16.8,16.9-16.8h0v19.5H22.5z"/>
<path class="st0" d="M16.7,40.8c-9.3-1.9-16.4-10.1-16.4-20c0-9.9,7-18.1,16.4-20V40.8z"/>
<path class="st2" d="M68.2,37c-5.6,0-10-1.7-13.2-5.1c-2.9-3-4.4-6.8-4.4-11.3c0-4.7,1.6-8.8,4.7-12.1c3.5-3.7,8.3-5.6,14.2-5.6
	c3.6,0,6.8,0.7,9.6,2.1c0.1,0.1,0.2,0.2,0.2,0.3v6.9c0,0.2-0.1,0.3-0.3,0.3c0,0-0.1,0-0.1,0c-0.1,0-0.3-0.1-0.3-0.2
	c-1.7-4.2-5-6.2-10.1-6.2c-3.9,0-7.1,1.4-9.4,4.2C57,12.9,56,16,56,19.7c0,3.7,1.1,6.9,3.3,9.5c2.4,2.9,5.7,4.3,9.8,4.3
	c3.9,0,7.4-1.6,10.5-4.9c0.1-0.1,0.2-0.1,0.3-0.1c0,0,0.1,0,0.1,0c0.1,0.1,0.2,0.2,0.2,0.3V32c0,0.1,0,0.2-0.1,0.2
	C77,35.4,73,37,68.2,37"/>
<path class="st2" d="M135,6.1c-4.7,0-8.6,1.5-11.6,4.5c-3,3-4.5,6.8-4.5,11.2c0,4.4,1.4,8,4.2,10.8c2.8,2.8,6.5,4.2,11,4.2
	c4.7,0,8.6-1.5,11.6-4.6c2.9-2.9,4.4-6.7,4.4-11.1c0-4.4-1.4-8-4.2-10.8C143.2,7.6,139.5,6.1,135,6.1 M145.4,22.2
	c0,3.4-1,6.2-2.9,8.3c-1.9,2.1-4.4,3.1-7.4,3.1c-3.4,0-6.1-1.2-8.2-3.6c-2.1-2.4-3.1-5.6-3.1-9.4c0-3.3,1-6.1,2.9-8.1
	c1.9-2,4.4-3,7.5-3c3.4,0,6.2,1.2,8.2,3.6C144.4,15.4,145.4,18.5,145.4,22.2"/>
<path class="st2" d="M161.7,9.9c0,0,0,0.1,0,0.1v0v0v22.7v0v0.2c0,1.1,0.8,2,1.9,2.2c0,0,0,0,0.1,0c0.2,0,0.3,0.2,0.3,0.4
	c0,0.3-0.2,0.5-0.5,0.5h0h-8.2c-0.3,0-0.5-0.2-0.5-0.5c0-0.1,0-0.3,0.1-0.4c0.1-0.1,0.1-0.1,0.2-0.1c0,0,0,0,0,0
	c1-0.2,1.8-1.1,1.8-2.2v-0.2c0,0,0,0,0,0V10.2c0,0,0,0,0,0V10c0-1.1-0.8-2-1.8-2.2c0,0,0,0,0,0c-0.3-0.1-0.4-0.3-0.4-0.5
	c0-0.3,0.2-0.5,0.5-0.5h8.3c0.3,0,0.5,0.2,0.5,0.5c0,0.2-0.1,0.4-0.4,0.5c0,0,0,0-0.1,0c-0.9,0.2-1.6,0.9-1.8,1.9
	C161.7,9.8,161.7,9.8,161.7,9.9"/>
<path class="st2" d="M194.8,29.1c0.2,0.1,0.3,0.2,0.3,0.5v2.8c0,0.1,0,0.3-0.1,0.3c-2.8,2.9-6.3,4.3-10.7,4.3c-5,0-9.1-1.5-12-4.6
	c-2.6-2.7-3.9-6.2-3.9-10.2c0-4.3,1.4-7.9,4.3-10.9c3.2-3.4,7.5-5.1,12.8-5.1c3.2,0,6.1,0.6,8.6,1.9c0.2,0.1,0.3,0.3,0.3,0.4v6.2
	c0,0.2-0.2,0.4-0.4,0.5c-0.2,0-0.5-0.1-0.6-0.3c-1.5-3.6-4.4-5.4-8.9-5.4c-3.5,0-6.2,1.2-8.3,3.7c-1.9,2.2-2.8,5-2.8,8.2
	c0,3.3,1,6.1,2.9,8.4c2.1,2.5,5,3.8,8.6,3.8c3.4,0,6.5-1.4,9.2-4.3C194.4,29.1,194.6,29,194.8,29.1"/>
<path class="st2" d="M222.7,28.8c0.2,0.1,0.4,0.3,0.3,0.6l-1.1,6.5c0,0.2-0.2,0.4-0.5,0.4h-21.1c-0.3,0-0.5-0.2-0.5-0.4
	c0-0.3,0.2-0.5,0.4-0.5c0,0,0,0,0,0c0,0,0,0,0.1,0c0,0,0,0,0,0c1-0.2,1.8-1.1,1.8-2.2v-23c0-1.1-0.9-2.1-2-2.2c0,0,0,0,0,0l0,0
	c-0.2,0-0.4-0.3-0.4-0.5c0-0.3,0.2-0.5,0.5-0.5h21.2c0.3,0,0.5,0.2,0.5,0.5V13c0,0.3-0.2,0.5-0.4,0.5c0,0,0,0-0.1,0
	c-0.2,0-0.4-0.2-0.5-0.4c0,0,0,0,0-0.1c-0.4-1.9-2-3.3-4.1-3.4h-0.6h0H207v10.1h8.8c1.8,0,2.8-0.5,3-1.6c0.1-0.2,0.3-0.4,0.5-0.4
	c0.2,0,0.4,0.2,0.4,0.5v6.1c0,0.3-0.2,0.5-0.5,0.5l0,0c-0.2,0-0.4-0.2-0.5-0.4c-0.2-1.1-1.2-1.6-3-1.6H207v10.3h8.8
	c0.1,0,0.1,0,0.2,0h0.4c2.5,0,4.7-1.6,5.5-3.9c0-0.1,0.1-0.1,0.1-0.2C222.2,28.8,222.5,28.7,222.7,28.8"/>
<path class="st2" d="M112.8,33c0,1.1,0.8,2,1.8,2.2l0.2,0.1c0.2,0.1,0.3,0.3,0.3,0.4c0,0.3-0.2,0.5-0.5,0.5h0h-8.3
	c-0.3,0-0.5-0.2-0.5-0.5c0-0.2,0.1-0.4,0.3-0.5l0.2-0.1c0.8-0.2,1.4-0.7,1.6-1.4c0.1-0.1,0.1-0.4,0.1-1c0-0.2,0-9.9,0-9.9H91.8v9.9
	c0,0,0,0,0,0V33c0,1.1,0.8,2,1.8,2.2l0,0l0.2,0.1c0.2,0.1,0.3,0.3,0.3,0.5c0,0.3-0.2,0.5-0.5,0.5h-8.3c-0.3,0-0.5-0.2-0.5-0.5
	c0-0.2,0.1-0.4,0.3-0.5l0.2-0.1v0c1-0.2,1.8-1.1,1.8-2.2v-0.1c0,0,0,0,0,0V10.2c0,0,0,0,0-0.1v0c0,0,0-0.1,0-0.1c0-0.1,0-0.2,0-0.2
	c-0.1-0.9-0.8-1.6-1.7-1.9c-0.1,0-0.2-0.1-0.2-0.1c-0.2-0.1-0.4-0.3-0.4-0.5c0-0.3,0.2-0.5,0.5-0.5h8.3c0.3,0,0.5,0.2,0.5,0.5
	c0,0.2-0.1,0.4-0.4,0.5l0,0C92.6,8,91.8,8.9,91.8,10v0.1c0,0,0,0,0,0v9.5h16.1V10c0-1.1-0.8-2-1.8-2.2c0,0,0,0,0,0
	c-0.3-0.1-0.4-0.3-0.4-0.5c0-0.3,0.2-0.5,0.5-0.5h8.3c0.3,0,0.5,0.2,0.5,0.5c0,0.2-0.1,0.5-0.4,0.5c0,0,0,0,0,0
	c-1,0.2-1.8,1.1-1.8,2.2V33z"/>
<path class="st3" d="M228.3,70.2h-1.2v-0.5h2.8v0.5h-1.2v3.1h-0.5V70.2z"/>
<path class="st3" d="M230.4,69.7h0.7l1.1,2.7h0l1.1-2.7h0.7v3.6h-0.5v-3h0l-1.2,3h-0.3l-1.2-3h0v3h-0.5V69.7z"/>
</svg>
