<?xml version="1.0" encoding="utf-8"?>
<!-- Generator: Adobe Illustrator 19.2.1, SVG Export Plug-In . SVG Version: 6.00 Build 0)  -->
<svg version="1.1" id="choice-hotels-logo-svg" xmlns="http://www.w3.org/2000/svg" xmlns:xlink="http://www.w3.org/1999/xlink" x="0px" y="0px" viewBox="0 0 500 134.3" style="enable-background:new 0 0 500 134.3;" xml:space="preserve">
<style type="text/css">
	.ch-st0{fill:#FFC82E;}
	.ch-st1{fill:#E16926;}
	.ch-st2{fill:#5E5746;}
	.ch-st3{fill:#231F20;}
</style>
<path class="ch-st0" d="M51.7,2v43h0C72.3,45,89,28.4,89.1,7.8V2H51.7L51.7,2z"/>
<path class="ch-st0" d="M89.1,90.6v-43h0c-20.6,0-37.3,16.7-37.4,37.2v5.8H89.1L89.1,90.6z"/>
<path class="ch-st1" d="M38.9,90.6C18.3,86.4,2.7,68.2,2.7,46.3C2.7,24.4,18.3,6.2,38.9,2V90.6L38.9,90.6z"/>
<path class="ch-st2" d="M152.7,82.1c-12.3,0-22.2-3.8-29.3-11.2c-6.4-6.7-9.6-15.1-9.6-24.9c0-10.4,3.5-19.4,10.4-26.7
	C132,11,142.6,6.8,155.6,6.8c7.9,0,15,1.6,21.1,4.6c0.3,0.1,0.4,0.4,0.4,0.7v15.3c0,0.4-0.3,0.7-0.6,0.8c-0.1,0-0.1,0-0.2,0
	c-0.3,0-0.6-0.2-0.7-0.5c-3.7-9.2-11-13.7-22.3-13.7c-8.7,0-15.7,3.1-20.8,9.2c-4.7,5.5-7,12.4-7,20.5c0,8.2,2.4,15.3,7.2,21
	c5.3,6.3,12.6,9.5,21.7,9.5c8.6,0,16.4-3.6,23.1-10.7c0.1-0.2,0.4-0.2,0.6-0.2c0.1,0,0.2,0,0.3,0c0.3,0.1,0.5,0.4,0.5,0.7v6.9
	c0,0.2-0.1,0.4-0.2,0.5C172.1,78.6,163.3,82.1,152.7,82.1"/>
<path class="ch-st2" d="M323.3,49.5c0,7.5-2.1,13.6-6.4,18.3c-4.2,4.6-9.7,6.9-16.4,6.9c-7.5,0-13.6-2.7-18.1-7.9
	c-4.6-5.3-7-12.3-7-20.7c0-7.4,2.1-13.4,6.3-17.9c4.2-4.5,9.7-6.7,16.5-6.7c7.5,0,13.7,2.6,18.2,7.8C321,34.5,323.3,41.3,323.3,49.5
	 M300.3,14c-10.4,0-19,3.3-25.6,9.9c-6.6,6.6-10,14.9-10,24.8c0,9.6,3.1,17.7,9.4,23.9c6.2,6.2,14.4,9.4,24.4,9.4
	c10.4,0,19.1-3.4,25.7-10.1c6.4-6.5,9.7-14.7,9.7-24.6c0-9.6-3.1-17.7-9.2-23.9C318.4,17.1,310.2,14,300.3,14"/>
<path class="ch-st2" d="M359.2,22.3c0-0.2,0-0.3,0.1-0.5c0.3-2.1,1.9-3.7,4-4.1c0,0,0.1,0,0.1,0c0.5-0.1,0.9-0.6,0.8-1.1
	c0-0.6-0.5-1-1.1-1h-18.3c-0.6,0-1,0.4-1.1,1c0,0.5,0.3,1,0.9,1.1c0,0,0,0,0,0c2.3,0.5,4,2.5,4.1,4.9V23c0,0,0,0,0,0v50
	c0,0,0,0.1,0,0.1v0.5c0,2.4-1.8,4.5-4.1,4.9c0,0,0,0,0,0c-0.2,0-0.3,0.1-0.5,0.2c-0.2,0.2-0.3,0.6-0.3,0.9c0,0.6,0.5,1,1.1,1h18.2h0
	c0.6,0,1.1-0.5,1.1-1.1c0-0.5-0.3-0.9-0.8-1c0,0-0.1,0-0.1,0c-2.3-0.4-4.1-2.5-4.1-4.9V73c0,0,0,0,0,0V22.7c0,0,0,0,0,0v-0.1
	C359.2,22.5,359.2,22.4,359.2,22.3"/>
<path class="ch-st2" d="M432.5,64.7c-0.4-0.2-0.9-0.1-1.2,0.3c-5.9,6.3-12.8,9.5-20.4,9.5c-8,0-14.4-2.8-19.1-8.4
	c-4.2-5.1-6.4-11.3-6.4-18.6c0-7.1,2.1-13.2,6.2-18.1c4.5-5.4,10.6-8.1,18.3-8.1c9.9,0,16.3,3.9,19.6,12c0.2,0.5,0.7,0.8,1.2,0.7
	c0.5-0.1,0.9-0.6,0.9-1.1V19.1c0-0.4-0.2-0.8-0.6-1c-5.5-2.8-12-4.2-19.1-4.2c-11.8,0-21.3,3.8-28.3,11.2
	c-6.3,6.6-9.4,14.7-9.4,24.2c0,8.9,2.9,16.5,8.7,22.6c6.4,6.7,15.3,10.2,26.4,10.2c9.6,0,17.6-3.2,23.6-9.5c0.2-0.2,0.3-0.5,0.3-0.7
	v-6.1C433.2,65.3,432.9,64.9,432.5,64.7"/>
<path class="ch-st2" d="M494.2,64c-0.5-0.2-1.1,0.1-1.3,0.6c-0.1,0.1-0.1,0.3-0.2,0.4c-1.8,5-6.6,8.5-12.2,8.5h-1c-0.2,0-0.3,0-0.5,0
	h-19.5V50.7H479c4.1,0,6.2,1.2,6.6,3.5c0.1,0.5,0.5,0.9,1.1,0.9l0.1,0c0.6,0,1-0.5,1-1.1V40.6c0-0.6-0.4-1-1-1.1
	c-0.6-0.1-1.1,0.3-1.2,0.9c-0.5,2.4-2.7,3.6-6.7,3.6h-19.4V21.7h20.7h0.1h1.3c4.4,0,8.1,3.2,9,7.4c0,0,0,0.1,0,0.1
	c0.2,0.5,0.6,0.9,1,0.9c0,0,0.1,0,0.1,0c0.6-0.1,1-0.5,1-1.1V16.6c0-0.6-0.5-1.1-1.1-1.1h-47c-0.6,0-1,0.4-1.1,1
	c0,0.6,0.4,1.1,0.9,1.1l0.1,0c0,0,0,0,0.1,0c2.4,0.4,4.3,2.4,4.3,5v50.8c0,2.4-1.7,4.4-3.9,4.9c0,0,0,0,0,0c0,0-0.1,0-0.1,0
	c0,0-0.1,0-0.1,0c-0.6,0.1-1,0.6-0.9,1.2c0,0.6,0.5,1,1.1,1h46.6c0.5,0,1-0.4,1.1-0.9l2.4-14.4C495.1,64.7,494.7,64.1,494.2,64"/>
<path class="ch-st2" d="M251.2,22.6c0-2.4,1.7-4.4,4-4.9c0,0,0,0,0.1,0c0.5-0.1,0.9-0.6,0.8-1.1c0-0.6-0.5-1-1.1-1h-18.3
	c-0.6,0-1,0.4-1.1,1c0,0.5,0.3,1,0.9,1.1c0,0,0,0,0,0c2.3,0.5,4,2.5,4,4.9v21.3h-35.6V22.8v0v-0.2c0-2.5,1.8-4.5,4.2-4.9l0,0
	c0.5-0.1,0.8-0.6,0.8-1.1c0-0.6-0.5-1-1.1-1h-18.4c-0.6,0-1,0.4-1.1,1c0,0.5,0.3,1,0.8,1.1c0,0,0.2,0,0.5,0.1
	c1.9,0.5,3.4,2.1,3.6,4.1c0,0.2,0,0.3,0.1,0.5c0,0.1,0,0.1,0,0.2v0.1v0.1v50.3v0v0.3c0,2.4-1.7,4.4-3.9,4.9l0,0l-0.4,0.2
	c-0.4,0.2-0.7,0.6-0.7,1.1c0,0.6,0.5,1,1.1,1h18.4c0.6,0,1-0.5,1.1-1c0-0.5-0.2-0.9-0.7-1.1l-0.4-0.1l0,0c-2.2-0.5-3.9-2.5-3.9-4.9
	v-0.5v-0.1V50.9h35.6c0,0,0,21.6,0,22c0,1.3-0.1,2-0.3,2.3c-0.6,1.6-1.9,2.8-3.6,3.2l-0.4,0.2c-0.4,0.2-0.7,0.6-0.6,1.1
	c0,0.6,0.5,1,1.1,1H255h0c0.6,0,1.1-0.5,1.1-1.1c0-0.4-0.2-0.8-0.6-1l-0.4-0.2c-2.2-0.5-3.9-2.5-3.9-4.9V22.6L251.2,22.6z"/>
<polygon class="ch-st1" points="221.7,117.6 221.7,126.1 218.2,126.1 218.2,106 221.7,106 221.7,114.4 231.3,114.4 231.3,106
	234.8,106 234.8,126.1 231.3,126.1 231.3,117.6 221.7,117.6 "/>
<path class="ch-st1" d="M260,108.9c-4,0-6.8,3.2-6.8,7.1c0,3.9,2.8,7.2,6.8,7.2c4,0,6.8-3.2,6.8-7.1C266.8,112.2,264,108.9,260,108.9
	 M260,126.4c-6.2,0-10.5-4.7-10.5-10.3c0-5.7,4.4-10.4,10.5-10.4c6.2,0,10.5,4.7,10.5,10.3C270.5,121.7,266.2,126.4,260,126.4"/>
<polygon class="ch-st1" points="292.3,126.1 288.8,126.1 288.8,109.3 282.4,109.3 282.4,106 298.7,106 298.7,109.3 292.3,109.3
	292.3,126.1 "/>
<polygon class="ch-st1" points="328.7,109.2 317.4,109.2 317.4,114.4 327.4,114.4 327.4,117.6 317.4,117.6 317.4,122.9 328.9,122.9
	328.9,126.1 313.9,126.1 313.9,106 328.7,106 328.7,109.2 "/>
<polygon class="ch-st1" points="346.5,106 350,106 350,122.9 360.5,122.9 360.5,126.1 346.5,126.1 346.5,106 "/>
<path class="ch-st1" d="M380.3,114.5c4.2,1,6.4,2.5,6.4,5.9c0,3.8-2.9,6-7.2,6c-3.1,0-6-1.1-8.4-3.2l2.1-2.5c1.9,1.7,3.8,2.6,6.3,2.6
	c2.2,0,3.6-1,3.6-2.5c0-1.5-0.8-2.2-4.5-3.1c-4.3-1-6.7-2.3-6.7-6c0-3.5,2.9-5.8,6.8-5.8c2.9,0,5.2,0.9,7.3,2.5l-1.9,2.7
	c-1.8-1.3-3.6-2.1-5.4-2.1c-2.1,0-3.3,1.1-3.3,2.4C375.6,112.9,376.5,113.5,380.3,114.5"/>
<path class="ch-st3" d="M394.8,109.6h0.6c0.1,0,0.3,0,0.4,0c0.1,0,0.3,0,0.4-0.1c0.1,0,0.2-0.1,0.3-0.2c0.1-0.1,0.1-0.2,0.1-0.4
	c0-0.2,0-0.3-0.1-0.4c-0.1-0.1-0.2-0.2-0.3-0.2c-0.1,0-0.2-0.1-0.4-0.1c-0.1,0-0.3,0-0.4,0h-0.6V109.6L394.8,109.6z M394,107.6h1.8
	c0.6,0,1,0.1,1.3,0.4c0.3,0.2,0.4,0.6,0.4,1.1c0,0.4-0.1,0.7-0.3,0.9c-0.2,0.2-0.5,0.3-0.8,0.4l1.2,2h-0.9l-1.2-1.9h-0.6v1.9H394
	V107.6L394,107.6z M392.1,110c0,0.5,0.1,0.9,0.3,1.3c0.2,0.4,0.4,0.8,0.7,1.1c0.3,0.3,0.7,0.6,1.1,0.7c0.4,0.2,0.9,0.3,1.3,0.3
	c0.5,0,0.9-0.1,1.3-0.3c0.4-0.2,0.8-0.4,1.1-0.7c0.3-0.3,0.5-0.7,0.7-1.1c0.2-0.4,0.3-0.9,0.3-1.3c0-0.5-0.1-0.9-0.3-1.3
	c-0.2-0.4-0.4-0.8-0.7-1.1c-0.3-0.3-0.7-0.6-1.1-0.7c-0.4-0.2-0.9-0.3-1.3-0.3c-0.5,0-0.9,0.1-1.3,0.3c-0.4,0.2-0.8,0.4-1.1,0.7
	c-0.3,0.3-0.6,0.7-0.7,1.1C392.2,109.1,392.1,109.5,392.1,110L392.1,110z M391.4,110c0-0.6,0.1-1.1,0.3-1.6c0.2-0.5,0.5-0.9,0.9-1.3
	c0.4-0.4,0.8-0.7,1.3-0.9c0.5-0.2,1-0.3,1.6-0.3c0.6,0,1.1,0.1,1.6,0.3c0.5,0.2,0.9,0.5,1.3,0.9c0.4,0.4,0.7,0.8,0.9,1.3
	c0.2,0.5,0.3,1,0.3,1.6c0,0.6-0.1,1.1-0.3,1.6c-0.2,0.5-0.5,0.9-0.9,1.3c-0.4,0.4-0.8,0.7-1.3,0.9c-0.5,0.2-1,0.3-1.6,0.3
	c-0.6,0-1.1-0.1-1.6-0.3c-0.5-0.2-0.9-0.5-1.3-0.9c-0.4-0.4-0.7-0.8-0.9-1.3C391.5,111.1,391.4,110.6,391.4,110L391.4,110z"/>
</svg>
