<?xml version="1.0" encoding="UTF-8"?><svg id="a" xmlns="http://www.w3.org/2000/svg" viewBox="0 0 640 426.67"><path d="M0,0h640v426.667H0" style="fill:#b31942;"/><path d="M0,49.231h640M640,114.872H0M0,180.513h640M640,246.154H0M0,311.795h640M640,377.436H0"/><path d="M640,393.846H0v-32.821h640v32.821ZM640,328.205H0v-32.821h640v32.821ZM640,262.564H0v-32.821h640v32.821ZM640,196.923H0v-32.821h640v32.821ZM640,131.282H0v-32.821h640v32.821ZM640,65.641H0v-32.821h640v32.821Z" style="fill:#fff;"/><path d="M0,0h324.267v229.744H0" style="fill:#0a3161;"/><g id="b"><g id="c"><g id="d"><g id="e"><path id="f" d="M27.022,9.846l7.717,23.749-20.202-14.678h24.971l-20.202,14.678,7.717-23.749Z" style="fill:#fff;"/><path id="g" d="M27.022,55.795l7.717,23.749-20.202-14.678h24.971l-20.202,14.678,7.717-23.749Z" style="fill:#fff;"/><path id="h" d="M27.022,101.744l7.717,23.749-20.202-14.678h24.971l-20.202,14.678,7.717-23.749Z" style="fill:#fff;"/><path id="i" d="M27.022,147.692l7.717,23.749-20.202-14.678h24.971l-20.202,14.678,7.717-23.749Z" style="fill:#fff;"/></g><path id="j" d="M27.022,193.641l7.717,23.749-20.202-14.678h24.971l-20.202,14.678,7.717-23.749Z" style="fill:#fff;"/></g><g id="k"><path id="l" d="M54.044,32.821l7.717,23.749-20.202-14.678h24.971l-20.202,14.678,7.717-23.749Z" style="fill:#fff;"/><path id="m" d="M54.044,78.769l7.717,23.749-20.202-14.678h24.971l-20.202,14.678,7.717-23.749Z" style="fill:#fff;"/><path id="n" d="M54.044,124.718l7.717,23.749-20.202-14.678h24.971l-20.202,14.678,7.717-23.749Z" style="fill:#fff;"/><path id="o" d="M54.044,170.667l7.717,23.749-20.202-14.678h24.971l-20.202,14.678,7.717-23.749Z" style="fill:#fff;"/></g></g><g id="p"><g id="q"><g id="r"><path id="s" d="M81.067,9.846l7.717,23.749-20.202-14.678h24.971l-20.202,14.678,7.717-23.749Z" style="fill:#fff;"/><path id="t" d="M81.067,55.795l7.717,23.749-20.202-14.678h24.971l-20.202,14.678,7.717-23.749Z" style="fill:#fff;"/><path id="u" d="M81.067,101.744l7.717,23.749-20.202-14.678h24.971l-20.202,14.678,7.717-23.749Z" style="fill:#fff;"/><path id="v" d="M81.067,147.692l7.717,23.749-20.202-14.678h24.971l-20.202,14.678,7.717-23.749Z" style="fill:#fff;"/></g><path id="w" d="M81.067,193.641l7.717,23.749-20.202-14.678h24.971l-20.202,14.678,7.717-23.749Z" style="fill:#fff;"/></g><g id="x"><path id="y" d="M108.089,32.821l7.717,23.749-20.202-14.678h24.971l-20.202,14.678,7.717-23.749Z" style="fill:#fff;"/><path id="z" d="M108.089,78.769l7.717,23.749-20.202-14.678h24.971l-20.202,14.678,7.717-23.749Z" style="fill:#fff;"/><path id="aa" d="M108.089,124.718l7.717,23.749-20.202-14.678h24.971l-20.202,14.678,7.717-23.749Z" style="fill:#fff;"/><path id="ab" d="M108.089,170.667l7.717,23.749-20.202-14.678h24.971l-20.202,14.678,7.717-23.749Z" style="fill:#fff;"/></g></g></g><g id="ac"><g id="ad"><g id="ae"><g id="af"><path id="ag" d="M135.111,9.846l7.717,23.749-20.202-14.678h24.971l-20.202,14.678,7.717-23.749Z" style="fill:#fff;"/><path id="ah" d="M135.111,55.795l7.717,23.749-20.202-14.678h24.971l-20.202,14.678,7.717-23.749Z" style="fill:#fff;"/><path id="ai" d="M135.111,101.744l7.717,23.749-20.202-14.678h24.971l-20.202,14.678,7.717-23.749Z" style="fill:#fff;"/><path id="aj" d="M135.111,147.692l7.717,23.749-20.202-14.678h24.971l-20.202,14.678,7.717-23.749Z" style="fill:#fff;"/></g><path id="ak" d="M135.111,193.641l7.717,23.749-20.202-14.678h24.971l-20.202,14.678,7.717-23.749Z" style="fill:#fff;"/></g><g id="al"><path id="am" d="M162.133,32.821l7.717,23.749-20.202-14.678h24.971l-20.202,14.678,7.717-23.749Z" style="fill:#fff;"/><path id="an" d="M162.133,78.769l7.717,23.749-20.202-14.678h24.971l-20.202,14.678,7.717-23.749Z" style="fill:#fff;"/><path id="ao" d="M162.133,124.718l7.717,23.749-20.202-14.678h24.971l-20.202,14.678,7.717-23.749Z" style="fill:#fff;"/><path id="ap" d="M162.133,170.667l7.717,23.749-20.202-14.678h24.971l-20.202,14.678,7.717-23.749Z" style="fill:#fff;"/></g></g><g id="aq"><g id="ar"><g id="as"><path id="at" d="M189.156,9.846l7.717,23.749-20.202-14.678h24.971l-20.202,14.678,7.717-23.749Z" style="fill:#fff;"/><path id="au" d="M189.156,55.795l7.717,23.749-20.202-14.678h24.971l-20.202,14.678,7.717-23.749Z" style="fill:#fff;"/><path id="av" d="M189.156,101.744l7.717,23.749-20.202-14.678h24.971l-20.202,14.678,7.717-23.749Z" style="fill:#fff;"/><path id="aw" d="M189.156,147.692l7.717,23.749-20.202-14.678h24.971l-20.202,14.678,7.717-23.749Z" style="fill:#fff;"/></g><path id="ax" d="M189.156,193.641l7.717,23.749-20.202-14.678h24.971l-20.202,14.678,7.717-23.749Z" style="fill:#fff;"/></g><g id="ay"><path id="az" d="M216.178,32.821l7.717,23.749-20.202-14.678h24.971l-20.202,14.678,7.717-23.749Z" style="fill:#fff;"/><path id="ba" d="M216.178,78.769l7.717,23.749-20.202-14.678h24.971l-20.202,14.678,7.717-23.749Z" style="fill:#fff;"/><path id="bb" d="M216.178,124.718l7.717,23.749-20.202-14.678h24.971l-20.202,14.678,7.717-23.749Z" style="fill:#fff;"/><path id="bc" d="M216.178,170.667l7.717,23.749-20.202-14.678h24.971l-20.202,14.678,7.717-23.749Z" style="fill:#fff;"/></g></g></g><g id="bd"><g id="be"><g id="bf"><path id="bg" d="M243.2,9.846l7.717,23.749-20.202-14.678h24.971l-20.202,14.678,7.717-23.749Z" style="fill:#fff;"/><path id="bh" d="M243.2,55.795l7.717,23.749-20.202-14.678h24.971l-20.202,14.678,7.717-23.749Z" style="fill:#fff;"/><path id="bi" d="M243.2,101.744l7.717,23.749-20.202-14.678h24.971l-20.202,14.678,7.717-23.749Z" style="fill:#fff;"/><path id="bj" d="M243.2,147.692l7.717,23.749-20.202-14.678h24.971l-20.202,14.678,7.717-23.749Z" style="fill:#fff;"/></g><path id="bk" d="M243.2,193.641l7.717,23.749-20.202-14.678h24.971l-20.202,14.678,7.717-23.749Z" style="fill:#fff;"/></g><g id="bl"><path id="bm" d="M270.222,32.821l7.717,23.749-20.202-14.678h24.971l-20.202,14.678,7.717-23.749Z" style="fill:#fff;"/><path id="bn" d="M270.222,78.769l7.717,23.749-20.202-14.678h24.971l-20.202,14.678,7.717-23.749Z" style="fill:#fff;"/><path id="bo" d="M270.222,124.718l7.717,23.749-20.202-14.678h24.971l-20.202,14.678,7.717-23.749Z" style="fill:#fff;"/><path id="bp" d="M270.222,170.667l7.717,23.749-20.202-14.678h24.971l-20.202,14.678,7.717-23.749Z" style="fill:#fff;"/></g></g><g id="bq"><g id="br"><path id="bs" d="M297.245,9.846l7.717,23.749-20.202-14.678h24.971l-20.202,14.678,7.717-23.749Z" style="fill:#fff;"/><path id="bt" d="M297.245,55.795l7.717,23.749-20.202-14.678h24.971l-20.202,14.678,7.717-23.749Z" style="fill:#fff;"/><path id="bu" d="M297.245,101.744l7.717,23.749-20.202-14.678h24.971l-20.202,14.678,7.717-23.749Z" style="fill:#fff;"/><path id="bv" d="M297.245,147.692l7.717,23.749-20.202-14.678h24.971l-20.202,14.678,7.717-23.749Z" style="fill:#fff;"/></g><path id="bw" d="M297.245,193.641l7.717,23.749-20.202-14.678h24.971l-20.202,14.678,7.717-23.749Z" style="fill:#fff;"/></g></svg>