<svg width="31" height="21" viewBox="0 0 31 21" fill="none" xmlns="http://www.w3.org/2000/svg">
<g clip-path="url(#clip0_2547_178092)">
<path d="M-2.5 -2.875H33.5V23.125H-2.5V-2.875Z" fill="#012169"/>
<path d="M-2.5 -2.875V0.0296876L29.4746 23.125H33.5V20.2203L1.52539 -2.875H-2.5ZM33.5 -2.875V0.0296876L1.52539 23.125H-2.5V20.2203L29.4746 -2.875H33.5Z" fill="white"/>
<path d="M12.5012 -2.875V23.125H18.4988V-2.875H12.5012ZM-2.5 5.79336V14.4566H33.5V5.79336H-2.5Z" fill="white"/>
<path d="M-2.5 7.525V12.725H33.5V7.525H-2.5ZM13.7 -2.875V23.125H17.3V-2.875H13.7ZM-2.5 23.125L9.49883 14.4566H12.1848L0.182423 23.125H-2.5ZM-2.5 -2.875L9.49883 5.79336H6.81641L-2.5 -0.935156V-2.875ZM18.8188 5.79336L30.8176 -2.875H33.5L21.5012 5.79336H18.8188ZM33.5 23.125L21.5012 14.4566H24.1836L33.5 21.1852V23.125Z" fill="#C8102E"/>
</g>
<defs>
<clipPath id="clip0_2547_178092">
<rect x="-2.5" y="-2.875" width="36" height="26" rx="2" fill="white"/>
</clipPath>
</defs>
</svg>

