<?xml version="1.0" encoding="UTF-8"?>
<svg id="Layer_1" xmlns="http://www.w3.org/2000/svg" width="30" height="20" version="1.1" viewBox="0 0 30 20">
  <!-- Generator: Adobe Illustrator 29.0.1, SVG Export Plug-In . SVG Version: 2.1.0 Build 192)  -->
  <defs>
    <style>
      .st0 {
        fill: #009b00;
      }

      .st1 {
        fill: #0032a0;
      }
    </style>
  </defs>
  <rect class="st1" x="0" y="0" width="30" height="20"/>
  <g>
    <path class="st0" d="M20.695,8.084"/>
    <path class="st0" d="M13.594,17.758c.028.006.055.012.081.018,0,0,0,.002,0,.002h.009s.005.002.008.002v-.002s.043.001.043.001c.001-.014,0-.027-.005-.04v-.004h-.002c-.011-.031-.033-.061-.054-.09-.023-.031-.047-.063-.055-.094v-.003c-.009-.022-.024-.032-.039-.037l.002-.01c.005-.023,0-.148-.047-.19.017-.028.024-.058.03-.085.007-.033.014-.064.037-.091.015-.014.036-.024.058-.034.023-.011.047-.022.066-.039l.01-.01-.002-.011c.007.002.014.004.022.004.041.003.082-.02.124-.069l.002-.003v-.003c.023-.047.029-.094.034-.14.008-.059.015-.114.053-.164h0c.041-.061.104-.101.17-.143.068-.044.139-.089.186-.158.024-.008.032-.022.035-.031.005-.015-.001-.031-.016-.043-.004-.003-.009-.006-.014-.009.032-.029.052-.069.057-.106.008-.061-.023-.113-.08-.135l-.007-.003h-.008c-.132.011-.251-.061-.353-.215-.023-.062.011-.117.034-.145l.002-.004c.006-.01.012-.021.018-.032.034-.064.07-.13.146-.133h.015s.008-.012.008-.012c.04-.054.094-.051.186-.04l.036.004.007-.021c.004-.012.008-.03.006-.047v-.011s-.011-.007-.011-.007c-.008-.006-.014-.012-.014-.016,0-.009.021-.028.036-.041.03-.026.066-.057.062-.1,0-.018-.002-.037-.003-.055-.003-.047-.007-.096.002-.142.052-.076.091-.095.161-.129.017-.008.036-.018.057-.028l.035-.018c.054,0,.122-.02.132-.074v-.009c.008-.06.017-.141-.055-.183l-.015-.009-.016.008c-.01.005-.026.009-.041.013-.029.007-.059.015-.077.035l-.009.01s-.006-.009-.01-.012l-.011-.009-.015.002c-.009.001-.018-.003-.033-.011-.011-.006-.023-.012-.037-.015-.023-.019-.021-.044-.015-.083.003-.021.007-.043.004-.066v-.004c-.002-.005-.004-.011-.006-.018-.014-.046-.043-.142-.014-.172.002-.002.009-.009.028-.009l.003.015c.054.001.104.024.157.048.044.02.089.04.138.049h.003c.091.007.282-.023.337-.109.017-.026.028-.068-.013-.121-.007-.041.009-.088.026-.123.025-.013.044-.039.052-.071.004-.015.004-.031.003-.045.007.002.015.003.023.003h.029v-.055l-.005-.005v-.013l-.02-.006c-.017-.005-.036-.009-.053-.01h-.002s-.009-.006-.013-.009c-.019-.011-.02-.012-.007-.044l.004-.009-.004-.009s0-.002-.001-.003c.005.002.01.004.014.006.024.01.048.021.07.023.037.008.074.008.11.008.023,0,.044,0,.065.002h.005s.005,0,.005,0c.052-.01.114-.018.18-.027.267-.035.6-.079.705-.273.019-.027.041-.055.065-.084.083-.1.177-.214.114-.349l-.009-.019-.023.003c-.038.005-.064-.013-.08-.028-.027-.027-.041-.065-.035-.099.042-.035.049-.07.046-.095-.004-.045-.04-.088-.098-.12-.015-.011-.036-.021-.058-.032.086-.015.16.022.238.062.029.015.059.03.089.043l.009.004.01-.002c.019-.004.036-.007.05-.01q.103-.022.182-.001c.022.006.049.013.084.021l.009.002.009-.003c.222-.075.283-.151.378-.317l.021-.038h-.035l-.004-.003s0,0,0,0c.082-.069.115-.136.149-.207.022-.046.045-.094.084-.147l.01-.014-.002-.003c.278-.189.349-.323.424-.464.051-.096.104-.195.223-.324.131-.069.191-.195.158-.332.028-.073.011-.144-.012-.204,0-.007.001-.014.002-.021.002-.022.005-.046-.006-.071.029-.017.039-.063.032-.089,0-.002,0-.003-.002-.005.006-.004.011-.008.016-.013.02-.02.03-.048.024-.07l-.003-.013s.002.003.004.004c.008.008.023.013.041.006.018-.008.082-.057.085-.094.057-.03.113-.071.167-.112.114-.085.232-.173.369-.157.02.004.033-.002.04-.006.013-.009.016-.022.017-.033h.002c.056-.034.104-.062.167-.071l.025-.004v-.012s.001,0,.002-.001l.028-.025-.031-.015s-.004-.004-.007-.006c.008-.004.033-.004.045-.004.023,0,.047,0,.068-.008,0,0-.002.001-.003.002l-.02.016.015.019c.023.028.057.018.072.014.005-.001.012-.003.013-.003l.102.021-.06-.053s.003,0,.004,0c.024-.005.048-.011.067-.009l.02.002.01-.015s.001-.002.002-.003c.034.018.093.012.155.005.033-.003.077-.008.09-.004l.038.012.002-.035s.006-.011.01-.016c.002-.003.004-.006.006-.008l.01-.015-.011-.014c-.005-.006-.005-.011-.004-.015.003-.013.021-.036.087-.071.008-.002.016-.005.024-.007.081-.024.172-.051.129-.17-.007-.062.038-.104.09-.153.029-.027.059-.055.079-.087l.002-.003v-.003c.015-.044.035-.088.068-.145.048-.026.072-.067.075-.124v-.003s0-.003,0-.003c-.038-.176.014-.228.06-.273.037-.036.075-.074.051-.157.016-.079.042-.159.067-.236.007-.022.014-.044.021-.065l.002-.006-.002-.006c-.036-.14-.043-.275-.021-.391l-.015-.004c.002-.01.001-.019,0-.028,0-.008-.001-.017,0-.022.007-.004.012-.011.014-.019.004-.016-.006-.03-.014-.039.006-.012.017-.024.027-.037.022-.027.053-.064.038-.102.002-.002.003-.004.005-.005.006.01.007.021.006.029l-.002.035.017-.004s0,.007,0,.011l.005.021h.025c.007,0,.013-.001.018-.004h.003s.008-.007.008-.007c.002-.001.004-.002.006-.003.013-.007.033-.017.04-.036l.008-.023-.013-.005c.03-.026.054-.059.076-.09.016-.023.032-.045.049-.062l.002-.002c.025-.033.039-.069.052-.104.004-.011.008-.022.013-.032l.016-.009c.026-.015.05-.043.055-.074.015-.008.03-.024.043-.039.028-.031.066-.072.122-.082l.014-.002.007-.011c.017-.027.04-.049.065-.072.025-.024.051-.049.071-.08l.011-.017h0c.117-.047.166-.18.206-.289.011-.029.021-.056.031-.08l.003-.008-.002-.008c-.009-.032-.005-.065,0-.099.004-.034.009-.069.001-.107l-.004-.022h-.007c-.005-.041-.019-.08-.033-.117-.012-.031-.022-.06-.028-.091-.009-.077-.05-.144-.11-.177-.048-.027-.105-.033-.165-.016-.016,0-.031,0-.046.002-.043.003-.07.004-.09-.016l-.007-.007h-.011s-.009-.003-.014-.003c-.04-.005-.057-.008-.068-.032l-.005-.011-.013-.004c-.102-.032-.179-.111-.254-.187l-.021-.021-.005-.002c-.051-.023-.098-.048-.144-.072-.154-.082-.3-.159-.527-.105h-.004s-.004.003-.004.003c-.021.011-.041.004-.075-.01-.032-.014-.071-.03-.112-.012-.049,0-.095-.022-.143-.044-.055-.025-.113-.051-.181-.049h-.017s-.008.013-.008.013c-.01.015-.027.02-.058.026-.018.004-.039.008-.06.017,0-.001-.001-.002-.002-.004l-.006-.012-.014-.003c-.02-.005-.037-.003-.05.002.008-.015.005-.033-.01-.058l-.008-.014h-.018s-.003,0-.004,0c0-.002,0-.003,0-.005.003-.023-.005-.046-.023-.066l.031-.027-.057.004-.004-.003-.005.004h-.014s-.012-.007-.016-.011c-.01-.009-.022-.02-.039-.026-.014-.011-.028-.012-.037-.011-.016.002-.028.01-.037.02-.021-.039-.06-.047-.093-.053-.028-.005-.052-.01-.073-.032l-.019-.021-.012.008v-.014l-.032.003c-.063.005-.077-.006-.094-.02-.012-.01-.027-.022-.054-.028-.017-.015-.042-.013-.057-.012,0,0-.002,0-.003,0-.02-.017-.051-.027-.074-.027h0c-.012,0-.022.003-.03.008-.011-.003-.022-.002-.037.002-.024-.012-.05-.012-.072,0-.004-.002-.009-.003-.013-.004.001-.002.002-.004.003-.006.003-.006.006-.011.009-.016l.009-.013-.009-.013c-.021-.032-.069-.036-.103-.039-.004,0-.008,0-.012-.001-.041-.007-.079-.008-.116-.006,0-.012-.004-.023-.007-.032l-.005-.012-.014-.004c-.016-.004-.035-.005-.054-.003l.019-.035h-.035s-.001-.001-.002-.002l-.008-.008h-.012s-.003-.001-.007-.007l-.017-.022-.021.013c.008-.015.011-.034-.006-.053l-.027-.029-.017.026s-.007.003-.01.004c-.003,0-.005.001-.007.002-.003,0-.007.002-.009.002h-.021s-.002,0-.002,0c0,0-.002,0-.003,0,.029-.031.061-.058.1-.081l.011-.007.002-.012c.014-.105-.011-.137-.068-.149v-.004c.002-.024-.005-.054-.03-.068-.01-.006-.032-.013-.061.002l-.008.004-.002.003s-.003-.002-.004-.003c0,0,0,0-.001,0-.002-.016-.01-.031-.017-.041-.003-.005-.006-.011-.008-.015-.007-.048-.03-.091-.049-.129-.01-.022-.015-.054-.019-.087-.01-.077-.023-.173-.135-.188h-.003c-.012-.034-.031-.067-.059-.068-.003,0-.006,0-.009,0-.013-.021-.033-.042-.059-.047,0,0-.002,0-.003,0-.011-.029-.048-.048-.075-.063-.026-.014-.054-.029-.061-.046l-.007-.015-.018-.002c-.043-.004-.087-.02-.129-.036-.036-.013-.073-.027-.109-.033l-.017-.003-.011.011s-.007.009-.01.014c0-.004,0-.009-.002-.013l-.004-.013-.015-.004c-.093-.028-.182-.041-.273-.038h-.006s-.005.002-.005.002c-.015.006-.045.004-.072.002-.042-.003-.085-.007-.111.018-.005.005-.008.01-.011.015-.061-.026-.151-.038-.215-.031,0-.01-.003-.019-.009-.028-.014-.022-.042-.038-.087-.049-.031-.037-.112-.12-.221-.11.009-.026.009-.052.007-.076v-.006s-.003-.005-.003-.005c-.053-.089-.158-.167-.312-.233l-.037-.016c-.008-.009-.019-.018-.035-.022l-.059-.017.008.019s-.009.001-.011.003c-.014.002-.029.007-.041.015-.003,0-.005,0-.008-.001-.026-.004-.055-.008-.084-.001h-.006s-.005.004-.005.004c-.011.007-.024.009-.04.012,0,0,0,0-.001,0,.024-.027.034-.065.044-.103v-.003s.006-.002.009-.003c.013-.005.038-.014.045-.042l.004-.014-.011-.01c-.029-.027-.061-.053-.117-.058-.008-.005-.016-.014-.025-.022-.015-.016-.033-.033-.059-.041l-.023-.007c.025,0,.05,0,.075-.006l.002.022.041-.036c.008-.004.014-.01.016-.018l.006-.02-.007-.004s0-.002.001-.004l.005-.009-.004-.01c-.002-.006-.006-.011-.009-.016-.002-.002-.004-.007-.005-.008v-.007c0-.012.001-.023.002-.025,0,0,.003-.004.005-.006.004-.005.011-.013.02-.026l.03-.042-.069.003c-.055.002-.112.004-.167.019l-.052.014.007.005c-.086.004-.171.006-.254.008-.09.002-.182.004-.275.009h-.028v.026c0,.009.005.019.011.028-.031.011-.053.022-.072.032-.054.028-.084.044-.268-.004-.089-.113-.234-.091-.362-.072-.064.01-.13.02-.189.014-.021-.018-.021-.03-.022-.052,0-.015-.001-.034-.01-.057v-.003s-.004-.003-.004-.003c-.065-.082-.204-.127-.319-.104-.013-.003-.018-.014-.025-.05-.007-.034-.015-.077-.062-.095l-.008-.003v-.036c.002-.026-.022-.048-.046-.061l-.031-.016-.009.023c-.012.007-.017.019-.015.033l.003.015.016.005s.007.005.01.008c.009.008.02.017.036.021l.035.007-.009.002c-.037.008-.062.024-.075.046-.019.033-.006.073.008.104l.006.014c-.031.019-.079.03-.126.04-.067.014-.137.029-.169.074l-.024-.022c-.071-.065-.07-.083-.07-.084.004-.005.028-.01.043-.014.007-.002.015-.004.023-.006l-.019.051.072-.042c.052-.03.051-.065.045-.083,0,0,0-.001,0-.002l.037-.066-.058.035c-.027-.026-.071-.043-.111-.046-.044-.003-.079.011-.1.037-.046.007-.059.023-.068.051-.003.009-.006.018-.015.029-.052.015-.097.039-.142.063-.086.045-.161.085-.261.055l-.007-.002h-.007c-.049.009-.065.047-.075.078-.015-.002-.031-.005-.046-.009-.049-.012-.111-.026-.158.04-.016.009-.027.02-.038.029-.009.009-.018.017-.03.024l-.007.004-.004.007c-.006.011-.011.022-.015.032-.01.023-.018.042-.039.056l.017.034c-.006.025-.014.047-.022.065l-.007.014.011.012c.005.005.008.012.008.019-.087.008-.12.05-.149.087-.029.037-.056.071-.136.088l-.011.002-.007.008c-.009.011-.019.034.013.061,0,.002.001.005.002.007-.005-.004-.009-.008-.014-.013-.011-.01-.022-.019-.032-.029-.004-.005-.008-.011-.012-.015-.019-.024-.024-.033-.023-.039h.06l-.031-.026.034-.027h-.066c-.006-.005-.012-.01-.018-.015-.093-.078-.218-.184-.372-.17-.034-.023-.08-.027-.122-.031-.012-.001-.024-.002-.035-.004l-.017-.002-.011.012c-.039.043-.094.063-.153.085-.047.017-.096.035-.138.065-.102.035-.131.012-.216-.056l-.048.029s.003.006.005.009c-.008,0-.015,0-.021-.002v-.006s.004-.008.005-.013c0-.003,0-.01-.005-.017v-.008c0-.006,0-.024-.016-.034-.012-.008-.025-.006-.034-.003-.009-.015-.026-.031-.057-.042l-.036-.013c-.077-.058-.142-.136-.179-.213,0-.002.002-.002.002-.004l.005-.03h-.023l-.027-.074-.003.008c0-.011.002-.021.009-.031.023-.013.034-.033.03-.054-.003-.016-.014-.031-.03-.042,0-.001,0-.003.001-.004,0,0,.002,0,.003,0l.02-.006v-.018c.001-.006,0-.012,0-.018,0-.011,0-.021.003-.028l.002-.004s.007-.003.009-.004l.023-.003v-.022c.001-.031,0-.064-.003-.096-.006-.097-.012-.197.054-.271.037-.039.025-.104-.002-.145.007-.007.011-.015.015-.023,0-.002.002-.004.003-.005h.002s.005-.009.005-.009l.028-.028-.021-.005c0-.009-.003-.018-.01-.029-.021-.035-.073-.068-.117-.075l-.006.019s-.007.002-.011.003c-.002-.002-.004-.004-.006-.006,0,0-.001-.001-.002-.002l.016-.015c-.043-.042-.111-.099-.198-.105l-.046-.003c-.02-.01-.042-.019-.066-.02h-.009s-.008.004-.008.004c-.046.027-.094.016-.149.004-.023-.005-.047-.01-.072-.013l-.023-.003.041-.036s.002,0,.002-.001h.022v-.053l-.025-.004c-.037-.006-.054.02-.062.03l-.028.04h.029v.022l-.03-.003.031.033c-.008.003-.015.006-.022.009-.022.01-.037.016-.051.013l-.007-.002h-.007c-.036.006-.07.003-.107,0-.039-.004-.078-.008-.12-.001-.034-.028-.064-.029-.11-.02l-.009.002-.006.006c-.013.012-.021.018-.032.021l-.006.002-.005.004s-.002.002-.002.002c0,0-.003,0-.004,0-.006,0-.016,0-.026.004-.007-.004-.014-.007-.021-.011-.015-.008-.03-.017-.047-.024l-.027-.012s.008-.005.013-.008c.06-.035.105-.077.099-.262.016-.022.009-.043.005-.055-.004-.011-.004-.012,0-.017l.004-.005v-.006s.004-.009.006-.015h.024c.007,0,.013-.002.019-.005h.021v-.025s.006-.01.008-.014c.009-.014.02-.032.007-.05-.004-.006-.014-.016-.035-.015h-.017c-.002-.008-.006-.016-.012-.023-.008-.009-.019-.015-.032-.018l.025-.044-.065.016c-.017.004-.025.013-.031.018-.005.005-.007.007-.026.009h-.018s-.007.016-.007.016c-.014.029-.035.06-.065.094,0,0,0,0-.001,0-.013-.007-.042-.024-.072-.003l-.01.007h0s-.452,0-.452,0v.12h-.148l.059.046c.014.011.028.023.042.034.035.029.071.06.114.083.003.007.007.012.01.015,0,0,0,.001.001.002,0,.011.005.025.029.038l.008.005h.008s.008,0,.01.001c0,.002-.001.005-.002.008-.002.007-.005.015-.006.025-.029.001-.062-.001-.094-.003-.102-.007-.228-.016-.266.101-.006.013-.016.024-.025.036-.016.019-.033.04-.039.07v.008s.002.007.002.007c.005.01.013.018.02.024,0,0,0,0,.001.001-.019.019-.017.046-.016.065,0,.013.002.028-.004.032l-.021.018.02.019c.116.111.226.125.333.138.061.008.124.016.191.042h0s.015.006.015.006c.003.001.006.002.008.003l.032.013v-.002c.059.02.119.038.178.053.052.014.107.028.159.045.005.002.01.004.014.005l.004-.011c.006.001.012.003.018.004.026.006.055.013.085.013.015,0,.03-.002.046-.006h.005s.004-.005.004-.005c.024-.017.038-.031.036-.051,0,0,0,0,0,0,.008,0,.015,0,.022,0,0,0,.001,0,.002,0,.002.011.008.019.013.026.003.004.005.008.008.012l.003.006s-.006-.001-.009,0l-.007.002-.006.004c-.022.017-.025.035-.025.046.002.033.04.056.076.079.02.013.046.028.052.039l.004.008.009.004c.05.022.079.056.113.095.013.015.026.03.04.046l.003.002c.019.015.04.029.06.043.023.016.047.033.067.05h-.004s.009.028.009.028c0,0-.001,0-.002,0-.007.003-.018.008-.026.015l-.03.027.039.015c.024.01.032.018.033.021,0,.004-.002.014-.032.044l-.005.004-.002.006c-.011.033-.005.065.017.093.025.033.069.056.117.063.002.003.005.007.007.01.013.017.04.054.079.035l.016-.007v-.01c.014-.006.028-.017.037-.031-.001.024.012.046.03.059l.005.003.006.002c.064.017.137.041.193.086l.003.002c.023.015.021.027.012.054-.006.02-.014.045.005.067.017.02.05.03.109.032h.01s0,0,0,0l.019.01c.019.01.029.025.042.044l.05.071.01-.075c0-.006-.001-.011-.002-.017h.007s.002-.01.002-.014c.002-.012.005-.015.005-.015.004-.003.027,0,.039.003.019.003.042.007.065.004.003.004.007.008.011.011.014.009.033.011.051.004.011,0,.023.002.037.006.007.002.014.004.022.006.035.085.096.106.141.109h.016s.01-.01.01-.01c0,0,0,0,0,0,.015.053.042.114.117.102.003,0,.005,0,.008,0,.024-.002.069-.006.085-.038.007-.002.015-.003.022-.004.023-.003.052-.007.063-.03.011-.022-.005-.045-.017-.061l-.003-.003c-.045-.039-.071-.066-.079-.078.006-.003.017-.006.026-.009.032-.011.081-.027.129-.063l.025-.018-.019-.017c.023-.025.054-.042.085-.045.031-.003.059.006.084.028l.008.007h.011c.006.002.009.003.015.007.008.005.019.012.036.016.007.004.01.011.015.026.004.011.008.024.016.036l.009.013h.008l.002.005s0,.002,0,.003l-.039-.006.012.039c.023.075.08.137.124.178-.008.011-.016.025-.019.047l-.002.013.01.009c.032.029.059.061.084.101l.012.018.019-.004c.003.006.003.018.001.026h-.031l.006.031c.001.006.003.012.005.018v.015h.006c.005.01.011.021.017.03.01.016.02.033.016.041-.001.003-.008.012-.041.024l-.053.018.046.028c.027.017.03.042.031.083,0,.015.001.031.004.047v.006s.005.005.005.005c.007.008.003.022-.003.042-.001.004-.003.008-.004.012-.008.005-.014.012-.018.018-.019.01-.026.025-.021.042l.009.032.014-.006c.002.012.008.024.021.036l.021.02.004-.003s.005.003.007.005c-.001.002-.002.003-.003.005-.014.018-.028.037-.036.059h-.014l-.007.018c-.014.039-.024.043-.029.042l-.051-.009.017.043c.002.006.003.009.003.011,0,0-.001,0-.002.001-.006.004-.014.01-.02.019-.002,0-.004.001-.006.002-.003-.006-.007-.011-.013-.016-.011-.007-.025-.009-.038-.005l-.009.003-.006.007c-.011.014-.014.033.001.05-.007-.001-.014-.002-.022-.001h-.011s-.006.006-.006.006c-.008,0-.017,0-.029.005-.073.028-.055.084-.045.117.002.005.003.01.004.015-.035-.004-.067.006-.083.028-.017.022-.019.058.026.096h.002c.055.041.116.078.158.103.025.02.058.023.084.026.008,0,.02.002.026.004v.009s.011.007.011.007c.011.008.023.01.033.012.009.053.043.066.097.067.008.002.018.005.028.009.023.009.049.018.08.014l.013-.002c.018.003.042.005.064-.006l.018-.008-.002-.018s0-.004,0-.005c.008,0,.025.005.043.014.022.031.063.054.105.057.002.002.006.003.008.005v.002c-.006.029.022.042.033.047,0,0,.001,0,.002,0,.009.026.03.042.05.055-.002.013,0,.025.001.037,0,.001,0,.003,0,.004-.01-.001-.017.002-.02.004l-.012.006-.002.012c-.016.092-.071.16-.154.239-.088.068-.181.113-.284.136-.096.013-.167.05-.213.11h-.043l-.004.022c-.006.035-.012.062-.025.087-.004.003-.008.008-.01.014-.018.016-.026.039-.033.059-.003.009-.006.017-.009.022v.003s-.002.003-.002.003c-.003.014,0,.025.003.031,0,0,0,0,0,0,0,.002-.001.003-.002.005-.046.016-.056.04-.058.061h-.006s-.005.015-.005.015c-.004.01-.004.011-.035.005-.004,0-.008-.002-.012-.002-.013-.012-.019-.024-.026-.038-.009-.019-.02-.043-.054-.058l-.015-.007-.014.008c-.006.004-.016,0-.037-.013-.018-.011-.049-.028-.079-.02l.018-.032-.019.003s.006-.005.013-.007c.01-.003.018-.009.022-.018.007-.015-.002-.029-.007-.037,0-.002,0-.005,0-.007,0-.006,0-.013,0-.018v-.005s-.002-.005-.002-.005c-.001-.002-.002-.004-.003-.006v-.012s-.005-.006-.005-.006c-.002-.018-.012-.027-.021-.031-.024-.011-.049.004-.067.015-.003.002-.006.004-.009.005l-.004.003c-.011.009-.024.018-.037.028-.085.063-.202.149-.161.263l.002.006.005.004c.037.034.029.044.024.049l-.012.015.011.015c.005.007.012.015.019.024.018.021.051.061.046.078,0,0,0,.002-.002.003-.016-.004-.032-.003-.045.004-.009.005-.025.016-.028.041v.012s.009.009.009.009c.078.068.139.097.189.121.084.04.144.068.234.267l.003.006.006.004c.098.074.142.176.189.284.014.032.028.065.044.097.018.053.05.101.081.147.042.063.082.122.085.191v.016s.017.007.017.007c.064.026.077.061.095.105.009.022.018.045.033.069l.002.004.004.003c.054.042.092.108.118.161l.002.003c.005.008.011.016.018.025.024.032.056.076.048.103-.001.004-.004.014-.028.025l-.051.023.05.023c.005.002.006.003.005.02,0,.004,0,.007,0,.011v.01s.007.007.007.007c.016.016.029.034.044.053.032.043.069.091.134.116.058.081.141.125.229.171.018.009.035.019.053.028h.002c.036.017.073.035.108.052.108.051.219.104.341.135.021.012.041.027.062.042.032.023.065.047.104.064h.004c.06.019.077.037.086.091l.002.013.013.006c.027.013.058.035.09.059.061.045.123.092.191.092,0,0,.001,0,.002,0,.015.02.016.052.016.088,0,.033,0,.068.013.098.032.083.025.169.018.26-.001.019-.003.038-.004.057v.004s.001.004.001.004c.026.082.029.161.011.244-.015.033-.016.073-.018.112-.003.076-.008.123-.058.138l-.018.005-.002.021c-.005.043-.011.091.032.127-.002.003-.004.006-.006.009-.009.013-.02.029-.02.051-.002.032-.005.069-.009.104-.002.024-.005.048-.007.07v.004s0,.004,0,.004c.036.119.034.122-.002.194-.008.015-.017.034-.028.057l-.005.01.005.01c.026.05.017.1.007.157-.001.006-.002.013-.003.019-.021.049-.03.1-.04.15-.005.027-.01.053-.016.078-.042.037-.048.087-.053.132-.004.032-.007.063-.023.085l-.003.004v.004c-.008.023-.021.041-.033.059-.029.04-.061.086.007.162.019.103-.007.143-.036.19-.033.051-.07.11-.038.251.005.034.013.07.022.109.029.128.06.26-.035.344l-.009.008v.012c.002.02.007.039.012.058.013.051.018.079-.02.103l-.007.005-.003.007c-.026.06-.04.123-.055.184-.011.046-.022.094-.038.139-.026.023-.041.049-.056.075-.011.019-.021.037-.036.052l-.009.01.004.013c.01.033.009.042-.004.054l-.003.004c-.025.035-.033.072-.042.109-.007.03-.014.058-.028.084-.026.013-.038.031-.039.058-.002.01-.004.02-.005.03-.004.024-.008.049-.018.055-.004.002-.016.006-.054-.005l-.031-.009-.007.028c-.007.027-.006.051-.006.072,0,.02.002.039-.005.061l-.004.012.008.01c.028.035.041.062.042.091-.031.074-.002.141.025.206.021.05.041.097.033.144-.002.007-.004.014-.007.02-.016.05-.03.094-.077.114l-.019.008.002.018c.002.021-.004.04-.011.063l-.004.013v.003c-.002.033-.013.065-.025.099-.022.064-.045.13-.006.2.001.031.014.058.034.073.003.002.005.004.008.005,0,.002-.002.003-.003.005-.023-.004-.045-.012-.069-.019l-.046-.015-.004.04c-.003.033-.008.074-.03.101l-.006.007v.008c0,.02,0,.04,0,.06.001.071.003.145-.042.202l-.003.004c-.01.019-.007.038.008.053.035.035.133.037.164.029l.014-.004.005-.012c.005-.012.004-.025.003-.035,0-.002,0-.006,0-.008h.005s.005-.002.005-.002c.036-.015.057-.036.062-.063.007-.041-.027-.081-.064-.114.005-.002.013-.004.023-.007.008-.001.027-.006.037-.021.01-.016.003-.031-.001-.041,0,0,0-.002-.001-.003.007-.005.013-.011.017-.018.014-.024.004-.051-.005-.075,0-.001-.001-.003-.002-.004.017,0,.037,0,.057-.002.007,0,.013-.001.017-.001h.006s.006-.002.006-.002c.026-.01.038-.031.048-.049.007-.012.011-.018.014-.021.009.008.017.015.025.02-.017.011-.032.026-.039.051l-.002.009.004.008c.009.018.025.032.045.038.011.004.023.005.036.004,0,.004.001.007.002.011-.003,0-.005-.001-.008-.001-.022-.002-.042.007-.052.025-.011.019-.008.043.006.067-.003.002-.006.004-.008.006-.029.027-.017.072-.006.115.002.007.003.013.005.02-.027.009-.037.036-.043.051-.005.013-.01.025-.018.029l-.011.005-.003.01c-.008.025,0,.052.007.078.006.021.012.045.006.055-.004.005-.014.008-.022.01l-.018.003-.004.016c-.012.043-.011.072,0,.092-.013-.002-.026-.003-.038-.001l-.03.004.005.026c.004.021-.007.036-.028.058-.006-.008-.014-.014-.025-.017-.003,0-.006-.002-.009-.002v-.009s0,0,0,0c.016-.012.016-.032.015-.048,0-.003,0-.006,0-.008v-.027s-.03,0-.03,0c-.004,0-.012-.01-.017-.017-.002-.003-.004-.006-.006-.008l-.007-.009-.013-.002c-.022-.003-.04,0-.054.01-.022.015-.024.039-.026.058,0,.004,0,.01-.002.015-.052.002-.077.008-.091.022-.013.013-.012.028-.011.037,0,.002,0,.005,0,.005,0,0-.002.003-.013.008l-.031.013.02.025c.007.009.015.019.023.028.024.029.048.059.067.089-.025.01-.052.034-.048.092-.003.01-.011.019-.019.028-.015.018-.034.04-.028.075l.006.035.036-.016s.012,0,.018.001c.017.003.052.008.075-.02.022-.015.033-.037.029-.06v-.005s-.005-.005-.005-.005c-.007-.01-.009-.02-.009-.034h.002s.009.001.014.002c.024.004.055.009.075-.008.002-.002.005-.004.007-.008h.021v-.005l.005-.022s.001-.007.002-.01c.003-.011.005-.021.003-.038v-.006s-.004-.005-.004-.005c-.009-.013-.012-.027-.015-.044.013.002.025-.002.035-.011l.021.006.002-.011c.006.005.011.008.017.01.021.009.056.014.109-.017l.003-.002.002-.002c.016-.014.024-.03.032-.044.005-.01.01-.019.017-.027l.011-.012v-.003c.017.007.016.016.015.021-.004.036-.074.091-.115.099-.055.001-.062.048-.065.073-.001.01-.003.02-.006.025l-.019.039.048-.002s0,0,.001,0c-.004.002-.008.005-.012.008-.014.01-.025.018-.051.018-.017-.014-.039-.021-.062-.017-.026.004-.048.021-.057.044l-.002.004v.005c0,.012.003.024.006.034.001.005.003.01.003.014-.017.015-.061.02-.098.025-.053.007-.104.013-.119.049-.011.025.003.051.022.074-.008.006-.016.011-.025.018-.072.052-.162.116-.151.179.005.03.032.054.08.07l.022.007.013-.017c.016-.02.019-.043.009-.062-.002-.004-.005-.008-.008-.012.013-.004.026-.009.039-.014.001.005.003.009.005.013.023.044.094.066.148.072h.001c.018.001.028-.005.033-.011.004-.005.007-.01.008-.014.004.008.005.02.005.042,0,.011,0,.022.002.033-.052.031-.075.063-.071.095,0,.004.001.007.003.011l-.012-.002-.011.013c-.021.025-.034.047-.028.068.006.021.027.031.048.04.004.002.008.003.012.005,0,.007.002.013.005.018-.003,0-.005,0-.008-.001l-.055-.008v.031c0,.012,0,.028.002.045-.01-.016-.019-.033-.021-.048v-.013s-.014-.007-.014-.007c-.018-.01-.018-.025-.013-.06l.003-.023-.015-.009s-.002-.001-.003-.002c0-.002,0-.004,0-.007-.002-.022-.027-.031-.039-.035l-.004-.002h-.005c-.033-.003-.062.006-.086.025l-.015.012.008.017c.004.009.009.015.013.018l-.003.026h.003s-.007.007-.01.012c-.002,0-.004-.002-.006-.002-.028-.01-.056.006-.065.012l-.022.012.011.021c.018.035.009.068-.002.106-.009.033-.02.069-.011.11l.005.021h.005s0,0,0,0l-.006.005-.002.005c-.017.039.01.056.024.063-.004.005-.011.013-.024.025l-.026.024.032.016s-.004.004-.004.005l-.01.014.01.014c.007.01.015.018.021.025.008.008.012.013.014.018h-.033l-.009.013c-.013.02-.017.057-.007.078l.012.027.029-.012s.002,0,.002,0c.003,0,.01.006.015.009.007.005.016.012.028.017l-.008.022c-.006.017-.01.034-.014.051-.005.02-.009.04-.017.058l-.015.034h.028s0,.018,0,.018c0,.019-.002.031-.012.046l-.009.014.01.013s.003.007.004.01c.004.012.017.049.062.042l.024-.004v-.022s.001-.009.002-.014c.001-.005.003-.012.003-.019v-.006s0,0,0,0c.002-.002.008-.006.013-.008.013-.007.03-.017.039-.036l.011-.024-.027-.01c-.006-.002-.012-.004-.019-.006.01-.004.021-.011.032-.02l.003-.003s.005-.005.007-.008c.01-.012.015-.018.025-.02l.026-.006-.004-.023c-.001-.008-.004-.015-.007-.021.017,0,.038-.003.055-.016l.01-.007v-.011c0-.007.007-.02.012-.032.011-.026.027-.064.006-.09.002-.017.004-.034.007-.051.005-.034.011-.068.008-.106,0-.037-.022-.093-.053-.139h.027s0-.019,0-.019c.003-.005.005-.01.005-.016v-.005c-.004-.015-.008-.032-.008-.047.009.036.028.069.066.084-.02.045-.023.107-.023.139,0,.042.004.136.045.174-.007.006-.013.013-.017.022-.015.031-.007.074.021.104.002.002.005.005.007.007-.033.005-.071.022-.105.072l-.01.015.011.014c.005.007.011.013.016.019-.013,0-.029.004-.045.014l-.012.007v.013c-.003.028.002.048.006.062-.014,0-.037,0-.063,0h-.045s.008.032.008.032c.013.053.034.09.059.115-.008.004-.015.008-.022.012-.008.005-.025.014-.03.014,0,0-.001,0-.003-.002l-.036-.035-.015.045c-.004.011-.008.022-.014.034-.012.028-.024.056-.024.088v.056s.048-.035.048-.035c.021-.015.032-.032.041-.046q.014-.021.035-.014l.013.004.012-.006c.008-.004.014-.009.02-.013.001,0,.002-.002.004-.003l.049.046v-.056h0c.008-.01.01-.021.011-.03h.025c.014.003.027.005.039.007.037.006.06.01.071.024.009.012.011.033.006.063-.003,0-.005,0-.008,0-.024.002-.039.019-.052.033l-.016.018s-.008-.006-.012-.009c-.015-.013-.034-.029-.065-.032l-.052-.006s0-.004-.002-.007l-.005-.02h-.024c-.008,0-.014.002-.018.004,0,0-.002,0-.003,0h-.03v.033c-.01.003-.018.008-.025.016-.036.044.008.149.042.189.031.036.06.034.075.029l.021-.007-.002-.02c-.001-.013.007-.031.015-.049.008-.019.017-.04.017-.06.002.001.004.003.005.004l.006.004h.008s.006.003.009.004c.012.005.039.017.062-.001h0c.013-.012.016-.025.009-.037,0,0,0,0,0,0,.018.012.048.031.076.022.002,0,.004.002.006.003.025.012.035.017.042.042l-.044-.037.008.07c0,.006,0,.012-.001.018-.01,0-.023-.007-.043-.018-.017-.009-.035-.019-.055-.023l-.025-.005-.01.021c-.011.024.001.047.012.068.006.012.013.024.012.033v.027s.03,0,.03,0c.003,0,.006,0,.007,0,.001.005,0,.016,0,.024-.002.025-.006.072.048.086l.008.002.008-.002c.027-.007.042-.009.056-.002-.003.001-.007.002-.01.003l-.063.017.056.031c.012.007.021.017.029.029-.005-.003-.011-.005-.016-.006-.057-.034-.126-.058-.192-.065-.009-.025-.03-.052-.051-.067-.029-.02-.053-.016-.065-.012l-.03.011.015.025c.025.044.067.103.122.131l.007.004h.008c.075,0,.118.02.128.062l.005.021h.006c-.018.008-.035.023-.05.05l-.023.041.052-.004c.014-.001.019.004.033.024.011.016.03.041.065.044,0,.008-.001.016-.002.025-.001.008-.002.015-.002.023v.015s.013.008.013.008c.003.002.005.004.008.006.009.007.026.018.044.02l.008.01s.003.003.004.005c.008.01.021.029.052.029h.021s.006-.013.006-.013c.002,0,.005-.002.007-.002.003,0,.006-.002.009-.003.054,0,.076-.036.093-.062-.003.006-.006.014-.007.022l-.002.011.007.009c.006.009.014.017.021.025.017.018.032.034.031.052v.029s.027-.001.027-.001c-.022.024-.042.053-.028.08.018.033.072.033.131.031.036.022.072.028.107.034.021.004.041.007.061.014.027.016.051.021.073.02-.003,0-.006.002-.01.002-.023.006-.057.014-.07.007-.001,0-.005-.003-.007-.012l-.005-.02h-.024c-.014,0-.025.004-.033.011-.019-.004-.039-.007-.061-.007h-.02s-.008.016-.008.016c-.017.036-.003.057.015.065.014.006.034.005.052-.012.003.002.007.005.012.009.007.006.015.012.025.018,0,.007.003.017.012.027l.009.009h.013c.007,0,.015.003.025.006.006.002.012.004.018.006l.019.005-.002.01.029.004c.051.008.074-.012.082-.024.023-.032.005-.081-.022-.113l-.011-.013s.007-.002.01-.003c.01.008.021.013.034.015.015.003.031.001.046-.003-.014.014-.017.034-.019.053-.001.011-.004.03-.009.034l-.008.006-.002.009c-.001.006-.003.027.025.038v.014s.022.006.022.006c.01.003.019.004.026.004,0,.005,0,.009,0,.011v.022s.023.005.023.005c.012.003.019.009.031.02.018.016.042.039.093.037l.073-.003-.004-.003.017-.004c.022-.006.042,0,.067.007.014.004.028.008.043.01.003.003.006.01.009.014.007.013.025.042.058.042.008,0,.017-.002.028-.006l.014-.006.003-.013c.012-.058-.024-.091-.048-.113-.006-.006-.017-.016-.018-.019,0,0,0-.002.003-.006l.009-.011-.005-.012c.017.016.044.027.096.03h.001s.001,0,.001,0c.024,0,.039-.013.049-.021,0,0,.002-.001.003-.002.01.027.034.036.054.036.04-.001.08-.04.086-.071v-.004s0-.004,0-.004c-.005-.026-.022-.046-.045-.063.047.009.093.023.14.041l.014.005.013-.007c.015-.008.033-.01.052-.013.024-.004.05-.008.075-.021.011-.001.024,0,.038,0,.033,0,.074.002.111-.022l.004-.003.003-.004c.025-.033.049-.07.031-.099-.018-.03-.062-.03-.113-.03-.049,0-.104,0-.131-.024l-.002-.002-.003-.002c-.03-.017-.055-.038-.083-.061-.033-.028-.067-.057-.111-.077-.134-.095-.215-.189-.25-.286l-.008-.021-.025.003c-.025.003-.044-.002-.048-.014-.003-.007,0-.018.012-.027l.054-.017c-.015-.056-.054-.102-.094-.142h0s0-.002,0-.002c-.001-.02-.006-.048-.031-.062-.027-.014-.057-.001-.083.01-.01.004-.021.009-.03.012-.004-.004-.007-.009-.011-.015-.006-.009-.014-.019-.023-.028.003-.003.005-.006.007-.009.014-.017.015-.018.03-.017.03.001.091.017.181.043l.039.011v-.036c0-.009-.002-.015-.004-.02,0-.001-.001-.003-.001-.003v-.02l-.022-.005c-.032-.008-.064-.015-.096-.022M12.409,15.35s-.009.008-.014.013c-.003-.006-.004-.009-.004-.011.002,0,.008-.002.018-.003ZM12.06,17.025c.022,0,.04-.004.052-.014.004-.003.007-.006.01-.01,0,.002,0,.004.001.006.003.013.007.027.011.04-.012-.004-.024-.006-.034-.008-.016-.003-.031-.006-.042-.012l-.003-.002s.003,0,.005,0ZM12.216,17.633s.005.01.007.015c-.006-.003-.013-.006-.021-.008-.002-.007-.003-.014-.003-.023,0-.007-.001-.014-.003-.021l.02.036ZM19.362,5.458s.001-.004.002-.006c.002-.004.004-.006.007-.009-.003.005-.006.009-.009.014ZM15.329,2.71c.004.011.002.029-.003.043-.02.003-.036.014-.05.022-.007.005-.014.008-.021.011h0s-.001,0-.001,0c-.002,0-.004.003-.007.004v.004s-.027.038-.027.038h-.007s-.001.011-.001.011l-.008.011s-.004-.008-.005-.012c-.012-.028-.027-.062-.062-.067-.003-.007-.007-.014-.013-.02,0,0,.001,0,.002,0,.069-.002.148-.003.202-.045ZM17.968,4.829s0,.007,0,.01c-.003.003-.006.006-.009.008-.021.019-.042.038-.037.063-.05-.004-.08.015-.092.036-.012.022-.005.048.016.061.008.005.022.011.043.008,0,0,0,.002,0,.002-.011.018-.02.045-.021.072-.004-.004-.009-.006-.015-.008-.002,0-.004-.001-.006-.001.001-.038-.021-.052-.032-.056-.031-.012-.07.004-.118.05.01-.015.023-.028.036-.042.023-.023.048-.048.059-.083.028-.006.04-.015.052-.027.008-.008.017-.017.057-.026l.01-.002.006-.007c.012-.013.023-.027.035-.04.005-.006.011-.012.016-.019h0ZM13.184,18.554s-.002,0-.004,0c0-.001,0-.003,0-.004.001.001.002.003.004.004ZM17.893,5.214s0,0,0,0c-.009-.012-.014-.019-.012-.025v-.004s.001-.004.001-.004c0-.015-.007-.026-.012-.034l.012-.006h0s.002.002.004.004c-.003.016,0,.042.007.069ZM18.247,5.265s-.006.004-.009.006c.002-.002.004-.005.006-.008.001,0,.003.001.004.002ZM17.917,5.268s-.003-.002-.004-.003c0-.001,0-.002,0-.004.001.002.003.005.004.007ZM12.738,17.213s.003.006.005.009c-.006.001-.011.003-.018.006-.041-.008-.077.01-.101.027,0-.002,0-.004-.002-.005.03-.027.04-.028.06-.028.014,0,.031-.001.056-.008ZM13.018,15.279c-.008,0-.017-.002-.024-.003-.014-.001-.03-.003-.041-.005.003,0,.005,0,.008,0,.021,0,.044.001.058.007,0,0,0,0,0,0ZM16.139,12.239c-.006.011-.015.017-.027.022.002-.009.004-.017.006-.025.002,0,.004,0,.006,0,.002,0,.004,0,.005,0h.009s0,.003,0,.003ZM17.63,5.186c0-.008.006-.013.02-.024.002-.002.004-.003.007-.005-.002.003-.005.006-.008.009-.006.006-.012.013-.018.021h0ZM12.65,18.224,13.367,8.721s-.002-.007-.003-.011c.003-.001.006-.003.009-.004.008.03.007.053-.005.068,0,0,0,0,0,0,.007-.02.002-.038-.001-.053ZM12.465,16.419c.001.008.003.017.006.026-.005-.003-.01-.006-.015-.009l-.007-.004c.005-.004.011-.009.015-.014ZM13.363,18.709s.01-.005.014-.007c.004.004.007.008.011.012-.007-.002-.016-.004-.025-.004ZM17.545,11.925h0s0,0,0,0c0-.002.002-.003.002-.005.011-.022.022-.044.025-.069.009-.006.023-.012.037-.017.038-.016.093-.04.087-.088.002-.004.005-.007.007-.011.009-.013.019-.028.022-.047h.016s0-.007,0-.009c-.003-.02.006-.042.018-.06h.005c.021.005.039,0,.055-.008v.003c.014.049.003.058-.017.074-.013.011-.031.025-.042.05-.009,0-.019.001-.028.006-.025.013-.027.039-.029.059,0,.005-.001.01-.002.014-.045.044-.101.084-.154.109ZM15.255,2.83v-.013l.004.014s-.003,0-.004,0ZM13.083,2.89h0c.004.035-.012.073-.041.095-.014.011-.037.022-.067.018-.008-.011-.01-.016-.008-.02l.011-.019-.019-.013c-.042-.03-.064-.056-.067-.077-.003-.023.018-.045.041-.071.019-.02.04-.044.052-.072.012.028.033.055.052.081.021.028.045.06.046.078ZM11.499,3.369s-.002.002-.003.002c0-.001-.002-.002-.002-.003l.002.002h.004ZM8.852,1.547s-.007-.002-.01-.003c.004-.008.008-.014.014-.019l-.004.022s0,0,0,0ZM14.548,14.776s.007-.002.012-.002l.011-.002.007-.008c.014-.015.037-.029.066-.012.005.008.009.019.012.03.003.011.007.023.013.034-.041-.007-.08-.023-.12-.041ZM16.106,12.536s0-.005,0-.01c.012.013.024.025.037.036.014.013.027.025.038.038-.038-.02-.071-.042-.075-.063ZM15.349,2.863s-.001,0-.002,0c-.004,0-.008,0-.012,0h-.008s-.01-.009-.015-.013c-.007-.005-.015-.008-.022-.011.016,0,.032,0,.049,0,.006,0,.011,0,.017,0l-.006.024ZM13.005,2.622s-.005.008-.007.012c-.005.004-.009.009-.012.013-.001-.004-.003-.007-.005-.011l.023-.013ZM11.366,4.391l.003.003s-.008,0-.013-.002c0,0-.002,0-.003-.001h.012ZM14.639,14.672h.03c-.009.001-.019.002-.031.001,0,0,0,0,0-.001ZM18.401,10.419s0,0,0,0c0,0,0,0,0,0h0Z"/>
    <path class="st0" d="M19.284,5.437c.005.002.011.003.016.003.01,0,.02-.004.028-.009h.002s.007-.006.01-.008c.001,0,.002-.002.003-.002l.013-.008v-.056h-.08v.019h-.011v.027c0,.021.014.03.02.032Z"/>
    <path class="st0" d="M9.049,1.184h-.03v.027s-.003.008-.007.013c-.008.012-.02.03-.014.056l.015.063.039-.054c.01-.014.016-.024.02-.032.016-.015.017-.031.016-.043l-.002-.025h-.019c-.006-.003-.012-.005-.019-.005Z"/>
    <path class="st0" d="M12.154,15.782h.015c.009,0,.017-.002.023-.003.003,0,.007-.002.009-.002h.024l.005-.021c.006-.022-.004-.042-.024-.052-.021-.01-.048-.004-.062.012-.01.012-.016.033.002.055l.009.011ZM12.18,15.754s0,0,0,0c.003,0,.007,0,.01-.002h0s-.008.003-.009.002Z"/>
    <path class="st0" d="M12.396,15.777c-.026.007-.041.01-.062.009l-.026-.002-.006.023c-.005.017,0,.029.006.036.013.018.036.022.053.024.004,0,.007.001.01.002l.018.004.012-.012s.009-.001.011,0l.034.004v-.031c0-.008-.003-.015-.005-.019v-.007l-.005-.005v-.036l-.039.011Z"/>
    <path class="st0" d="M12.127,16.094l-.014-.003c-.016-.004-.027.002-.033.005l-.026.005.006.026c.002.01.006.018.01.024,0,.002.002.003.003.005l.005.011.013.004s.007.002.011.002c.009,0,.017-.003.025-.008.003-.001.007-.004.01-.007l-.016-.015.025-.002c0-.006-.001-.01-.003-.014-.002-.006-.005-.012-.007-.016,0-.002-.002-.003-.003-.005l-.006-.012Z"/>
    <path class="st0" d="M13.572,2.472c.006.003.012.006.018.009l.045.026v-.027h.017l-.008-.033c-.007-.03-.032-.043-.05-.053-.013-.007-.022-.012-.025-.019l-.004-.01-.012-.006c-.008-.004-.019-.009-.037-.006l-.023.004-.002.022c-.004.05.047.076.08.093Z"/>
    <path class="st0" d="M9.345,1.524c.017,0,.031-.008.042-.015.003-.002.008-.005.01-.005h.002c.006-.003.011-.003.017-.005.007-.001.015-.003.025-.006l-.009-.053c-.037,0-.079.003-.112.039l-.037.04.057.005s.003,0,.005,0Z"/>
    <path class="st0" d="M11.199,3.228c-.018-.003-.03.003-.038.006l-.017.008v.01s-.008-.007-.008-.007l-.02.029c-.012.017-.012.032,0,.049l.02.029.028-.026.049.062v-.073s.008-.007.01-.012c0-.002.002-.004.002-.008.007-.015.002-.029,0-.035,0-.001,0-.002-.001-.004v-.023s-.024-.004-.024-.004Z"/>
    <path class="st0" d="M10.549,3.524l.006-.042.013-.009-.007-.02c-.012-.033-.037-.043-.057-.041-.025.002-.044.022-.048.051v.007s.002.007.002.007c.014.03.042.047.083.051l.032.002v-.029c0,.013-.012.022-.024.022Z"/>
    <path class="st0" d="M15.537,2.678l.006-.003s.007-.002.011-.003c.02-.005.057-.016.063-.051l.005-.034-.037.003c-.023.002-.092.008-.095.06l-.002.029h.049Z"/>
    <path class="st0" d="M14.446,2.739c.014,0,.026-.003.034-.007l.036-.019-.03-.026c-.011-.009-.039-.029-.07-.021l-.008.002-.006.006c-.016.016-.013.035-.003.046.011.012.03.017.048.017Z"/>
    <path class="st0" d="M14.708,2.725c.014.011.031.017.049.017.012,0,.024-.003.035-.008.031-.016.042-.051.026-.084l-.002-.005-.036-.033-.021.021s-.006.005-.009.008c-.005.004-.011.01-.016.016l-.004-.011-.019-.002c-.014-.002-.025,0-.034.003-.004,0-.007.002-.01.002l-.027.002v.018s-.001.001-.002.002l-.03.028.039.016c.022.009.043.013.061.011Z"/>
  </g>
</svg>