<?xml version="1.0" encoding="UTF-8"?><svg id="a" xmlns="http://www.w3.org/2000/svg" xmlns:xlink="http://www.w3.org/1999/xlink" viewBox="0 0 640 426.67"><defs><clipPath id="b"><rect width="343.954" height="171.977" style="fill:none;"/></clipPath><clipPath id="c"><path d="M0,0v85.988h343.954v85.988L0,0ZM343.954,0h-171.977v171.977H0L343.954,0Z" style="fill:none;"/></clipPath></defs><path d="M0,0h640v426.667H0V0Z" style="fill:#012169;"/><g style="clip-path:url(#b);"><path d="M0,0l343.954,171.977M343.954,0L0,171.977"/><polygon points="336.263 187.359 171.977 105.216 7.691 187.359 -7.691 156.595 133.522 85.988 -7.691 15.382 7.691 -15.382 171.977 66.761 336.263 -15.382 351.644 15.382 210.432 85.988 351.644 156.595 336.263 187.359" style="fill:#fff;"/></g><g style="clip-path:url(#c);"><path d="M0,0l343.954,171.977M343.954,0L0,171.977"/><polygon points="338.826 182.232 171.977 98.807 5.128 182.232 -5.128 161.722 146.339 85.988 -5.128 10.255 5.128 -10.255 171.977 73.17 338.826 -10.255 349.081 10.255 197.615 85.988 349.081 161.722 338.826 182.232" style="fill:#e4002b;"/></g><path d="M171.977,0v171.977M0,85.988h343.954"/><polygon points="200.64 171.977 143.314 171.977 143.314 114.651 0 114.651 0 57.326 143.314 57.326 143.314 0 200.64 0 200.64 57.326 343.954 57.326 343.954 114.651 200.64 114.651 200.64 171.977" style="fill:#fff;"/><path d="M171.977,0v171.977M0,85.988h343.954"/><polygon points="189.174 171.977 154.779 171.977 154.779 103.186 0 103.186 0 68.791 154.779 68.791 154.779 0 189.174 0 189.174 68.791 343.954 68.791 343.954 103.186 189.174 103.186 189.174 171.977" style="fill:#e4002b;"/><path id="d" d="M171.977,206.372l9.949,30.934,30.388-11.508-17.981,27.065,27.944,16.583-32.372,2.816,4.458,32.187-22.385-23.553-22.385,23.554,4.458-32.187-32.372-2.816,27.944-16.583-17.982-27.065,30.388,11.508,9.949-30.934Z" style="fill:#fff;"/><path id="e" d="M515.93,262.06l4.738,14.73,14.47-5.48-8.563,12.888,13.307,7.897-15.415,1.341,2.123,15.327-10.66-11.216-10.66,11.216,2.123-15.327-15.415-1.341,13.307-7.897-8.563-12.888,14.47,5.48,4.738-14.73Z" style="fill:#fff;"/><path id="f" d="M429.942,125.912l4.738,14.73,14.47-5.48-8.563,12.888,13.307,7.897-15.415,1.341,2.123,15.327-10.66-11.216-10.66,11.216,2.123-15.327-15.415-1.341,13.307-7.897-8.563-12.888,14.47,5.48,4.738-14.73Z" style="fill:#fff;"/><path id="g" d="M515.93,32.757l4.738,14.73,14.47-5.48-8.563,12.888,13.307,7.897-15.415,1.341,2.123,15.327-10.66-11.216-10.66,11.216,2.123-15.327-15.415-1.341,13.307-7.897-8.563-12.888,14.47,5.48,4.738-14.73Z" style="fill:#fff;"/><path id="h" d="M592.364,102.981l4.738,14.73,14.47-5.48-8.563,12.888,13.307,7.897-15.415,1.341,2.123,15.327-10.66-11.216-10.66,11.216,2.123-15.327-15.415-1.341,13.307-7.897-8.563-12.888,14.47,5.48,4.738-14.73Z" style="fill:#fff;"/><path id="i" d="M550.326,171.977l3.744,9.178,9.886.724-7.572,6.397,2.366,9.626-8.424-5.225-8.424,5.225,2.366-9.626-7.572-6.397,9.886-.724,3.744-9.178Z" style="fill:#fff;"/></svg>