<?xml version="1.0" encoding="UTF-8"?><svg id="a" xmlns="http://www.w3.org/2000/svg" viewBox="0 0 640 426.67"><path d="M0,0h160l6.6,6.6h306.8l6.6-6.6h160v426.67h-160l-6.6-6.6H166.6l-6.6,6.6H0V0Z" style="fill:red;"/><path d="M160,0h320v426.67H160V0ZM326,348.668l-3-57.533c-.161-3.494,2.541-6.457,6.035-6.618.457-.021.914.007,1.365.085l57.267,10.067-7.733-21.333c-.643-1.74-.107-3.697,1.333-4.867l62.733-50.8-14.133-6.6c-1.975-.933-2.947-3.191-2.267-5.267l12.4-38.133-36.133,7.667c-2.018.421-4.054-.639-4.867-2.533l-7-16.467-28.2,30.267c-1.647,1.737-4.389,1.81-6.126.163-1.073-1.017-1.553-2.511-1.274-3.963l13.6-70.133-21.8,12.6c-2.065,1.21-4.72.517-5.93-1.547-.048-.083-.094-.167-.137-.253l-22.133-43.467-22.133,43.467c-1.071,2.14-3.674,3.008-5.814,1.937-.086-.043-.17-.089-.253-.137l-21.8-12.6,13.6,70.133c.452,2.35-1.087,4.622-3.437,5.074-1.452.279-2.946-.201-3.963-1.274l-28.2-30.267-7,16.467c-.813,1.895-2.848,2.954-4.867,2.533l-36.133-7.667,12.4,38.133c.68,2.076-.292,4.333-2.267,5.267l-14.133,6.6,62.733,50.8c1.441,1.169,1.977,3.126,1.333,4.867l-7.733,21.333,57.267-10.067c3.447-.593,6.722,1.721,7.315,5.168.077.451.106.908.085,1.365l-3,57.533h12Z" style="fill:#fff;"/></svg>