<?xml version="1.0" encoding="UTF-8"?>
<svg id="Layer_1" xmlns="http://www.w3.org/2000/svg" width="30" height="20" version="1.1" viewBox="0 0 30 20">
  <!-- Generator: Adobe Illustrator 29.1.0, SVG Export Plug-In . SVG Version: 2.1.0 Build 142)  -->
  <defs>
    <style>
      .st0 {
        fill: #008;
      }

      .st1 {
        fill: #fff;
      }

      .st2 {
        fill: #f93;
      }

      .st3 {
        fill: #128807;
      }
    </style>
  </defs>
  <path class="st2" d="M0,0h30v6.7H0V0Z"/>
  <path class="st1" d="M0,6.7h30v6.7H0v-6.7Z"/>
  <path class="st3" d="M0,13.3h30v6.7H0v-6.7Z"/>
  <path class="st0" d="M15,12.8c1.7,0,3-1.2,3-2.8s-1.3-2.8-3-2.8-3,1.2-3,2.8,1.3,2.8,3,2.8Z"/>
  <path class="st1" d="M15,12.4c1.4,0,2.6-1.1,2.6-2.4s-1.2-2.4-2.6-2.4-2.6,1.1-2.6,2.4,1.2,2.4,2.6,2.4Z"/>
  <path class="st0" d="M15,10.5c.3,0,.5-.2.5-.5s-.2-.5-.5-.5-.5.2-.5.5.2.5.5.5Z"/>
  <path class="st0" d="M17.6,10.4c0,0,.1,0,.2-.1,0,0,0-.1-.1-.1,0,0-.1,0-.2.1,0,0,0,.1.1.1Z"/>
  <path class="st0" d="M15,12.4v-1.5c0,0,0-.7,0-.7v.7c0,0,0,1.5,0,1.5Z"/>
  <path class="st0" d="M17.4,11c0,0,.1,0,.2,0,0,0,0-.1,0-.2,0,0-.1,0-.2,0,0,0,0,.1,0,.2Z"/>
  <path class="st0" d="M14.3,12.3l.5-1.4v-.7c.1,0-.2.6-.2.6l-.3,1.4Z"/>
  <path class="st0" d="M17,11.6c0,0,.1,0,.2,0,0,0,0-.1,0-.2,0,0-.1,0-.2,0,0,0,0,.1,0,.2Z"/>
  <path class="st0" d="M13.7,12.1l.9-1.2.3-.6-.5.6-.7,1.3Z"/>
  <path class="st0" d="M16.5,12c0,0,.1,0,.2,0,0,0,0-.1,0-.2,0,0-.1,0-.2,0,0,0,0,.1,0,.2Z"/>
  <path class="st0" d="M13.1,11.7l1.2-1,.5-.5-.6.4-1.1,1.1Z"/>
  <path class="st0" d="M15.9,12.3c0,0,.1,0,.2,0,0,0,0,0,0-.2,0,0-.1,0-.2,0,0,0,0,0,0,.2Z"/>
  <path class="st0" d="M12.7,11.2l1.4-.6.6-.4-.7.3-1.3.8Z"/>
  <path class="st0" d="M15.2,12.4c0,0,0,.1.2.1,0,0,.1,0,.1-.1,0,0,0-.1-.2-.1,0,0-.1,0-.1.1Z"/>
  <path class="st0" d="M12.5,10.6l1.5-.3.7-.3h-.7c0,0-1.5.5-1.5.5Z"/>
  <path class="st0" d="M14.5,12.4c0,0,0,.1.1.1,0,0,.1,0,.2-.1s0-.1-.1-.1-.1,0-.2.1Z"/>
  <path class="st0" d="M12.4,10h1.6c0,0,.7,0,.7,0h-.8c0,0-1.6,0-1.6,0Z"/>
  <path class="st0" d="M13.9,12.2c0,0,0,.1,0,.2,0,0,.1,0,.2,0s0-.1,0-.2c0,0-.1,0-.2,0Z"/>
  <path class="st0" d="M12.5,9.4l1.5.5h.7c0,.1-.7-.2-.7-.2l-1.5-.3Z"/>
  <path class="st0" d="M13.3,11.8c0,0,0,.1,0,.2,0,0,.1,0,.2,0,0,0,0-.1,0-.2,0,0-.1,0-.2,0Z"/>
  <path class="st0" d="M12.7,8.8l1.3.8.7.3-.6-.4-1.4-.6Z"/>
  <path class="st0" d="M12.8,11.4c0,0,0,.1,0,.2,0,0,.1,0,.2,0,0,0,0-.1,0-.2,0,0-.1,0-.2,0Z"/>
  <path class="st0" d="M13.1,8.3l1,1.1.6.4-.5-.5-1.2-1Z"/>
  <path class="st0" d="M12.5,10.8c0,0-.1,0,0,.2,0,0,.1,0,.2,0,0,0,.1,0,0-.2,0,0-.1,0-.2,0Z"/>
  <path class="st0" d="M13.7,7.9l.7,1.3.5.6-.3-.6-.9-1.2Z"/>
  <path class="st0" d="M12.4,10.2c0,0-.1,0-.1.1,0,0,0,.1.2.1,0,0,.1,0,.1-.1,0,0,0-.1-.2-.1Z"/>
  <path class="st0" d="M14.3,7.7l.3,1.4.3.6v-.7c-.1,0-.6-1.4-.6-1.4Z"/>
  <path class="st0" d="M12.4,9.6c0,0-.1,0-.2.1,0,0,0,.1.1.1,0,0,.1,0,.2-.1,0,0,0-.1-.1-.1Z"/>
  <path class="st0" d="M15,7.6v1.5c0,0,0,.7,0,.7v-.7c0,0,0-1.5,0-1.5Z"/>
  <path class="st0" d="M12.6,9c0,0-.1,0-.2,0,0,0,0,.1,0,.2,0,0,.1,0,.2,0,0,0,0-.1,0-.2Z"/>
  <path class="st0" d="M15.7,7.7l-.5,1.4v.7c-.1,0,.2-.6.2-.6l.3-1.4Z"/>
  <path class="st0" d="M13,8.4c0,0-.1,0-.2,0,0,0,0,.1,0,.2,0,0,.1,0,.2,0,0,0,0-.1,0-.2Z"/>
  <path class="st0" d="M16.3,7.9l-.9,1.2-.3.6.5-.6.7-1.3Z"/>
  <path class="st0" d="M13.5,8c0,0-.1,0-.2,0,0,0,0,.1,0,.2,0,0,.1,0,.2,0,0,0,0-.1,0-.2Z"/>
  <path class="st0" d="M16.9,8.3l-1.2,1-.5.5.6-.4,1.1-1.1Z"/>
  <path class="st0" d="M14.1,7.7c0,0-.1,0-.2,0,0,0,0,0,0,.2,0,0,.1,0,.2,0,0,0,0,0,0-.2Z"/>
  <path class="st0" d="M17.3,8.8l-1.4.6-.6.4.7-.3,1.3-.8Z"/>
  <path class="st0" d="M14.8,7.6c0,0,0-.1-.2-.1,0,0-.1,0-.1.1,0,0,0,.1.2.1,0,0,.1,0,.1-.1Z"/>
  <path class="st0" d="M17.5,9.4l-1.5.3-.7.3h.7c0,0,1.5-.5,1.5-.5Z"/>
  <path class="st0" d="M15.5,7.6c0,0,0-.1-.1-.1,0,0-.1,0-.2.1,0,0,0,.1.1.1,0,0,.1,0,.2-.1Z"/>
  <path class="st0" d="M17.6,10h-1.6c0,0-.7,0-.7,0h.8c0,0,1.6,0,1.6,0Z"/>
  <path class="st0" d="M16.1,7.8c0,0,0-.1,0-.2,0,0-.1,0-.2,0,0,0,0,.1,0,.2,0,0,.1,0,.2,0Z"/>
  <path class="st0" d="M17.5,10.6l-1.5-.5h-.7c0-.1.7.2.7.2l1.5.3Z"/>
  <path class="st0" d="M16.7,8.2c0,0,0-.1,0-.2s-.1,0-.2,0c0,0,0,.1,0,.2,0,0,.1,0,.2,0Z"/>
  <path class="st0" d="M17.3,11.2l-1.3-.8-.7-.3.6.4,1.4.7Z"/>
  <path class="st0" d="M17.2,8.6c0,0,0-.1,0-.2,0,0-.1,0-.2,0,0,0,0,.1,0,.2,0,0,.1,0,.2,0Z"/>
  <path class="st0" d="M16.9,11.7l-1.1-1.1-.6-.4.5.5,1.2,1Z"/>
  <path class="st0" d="M17.5,9.2c0,0,.1,0,0-.2,0,0-.1,0-.2,0,0,0-.1,0,0,.2,0,0,.1,0,.2,0Z"/>
  <path class="st0" d="M16.3,12.1l-.7-1.3-.5-.6.3.6.9,1.2Z"/>
  <path class="st0" d="M17.6,9.8c0,0,.1,0,.1-.1,0,0,0-.1-.2-.1,0,0-.1,0-.1.1,0,0,0,.1.2.1Z"/>
  <path class="st0" d="M15.7,12.3l-.3-1.4-.3-.6v.7c.1,0,.6,1.4.6,1.4Z"/>
</svg>