<?xml version="1.0" encoding="UTF-8"?><svg id="a" xmlns="http://www.w3.org/2000/svg" xmlns:xlink="http://www.w3.org/1999/xlink" viewBox="0 0 640 426.67"><defs><clipPath id="b"><rect x=".505" y=".122" width="348.543" height="174.371" style="fill:none;"/></clipPath><clipPath id="c"><path d="M.505.122l174.272,87.186H.505V.122ZM174.777.122h174.272l-174.272,87.186V.122ZM174.777,87.308h174.272v87.186l-174.272-87.186ZM174.777,87.308v87.186H.505l174.272-87.186Z" style="fill:none;"/></clipPath><clipPath id="d"><rect x=".505" y=".122" width="348.543" height="174.371" style="fill:none;"/></clipPath><clipPath id="e"><rect x=".505" y=".122" width="348.543" height="174.371" style="fill:none;"/></clipPath></defs><path d="M.505.122h640v426.67H.505V.122Z" style="fill:#012169;"/><g style="clip-path:url(#b);"><path d="M.505.122l348.543,174.371M.505,174.493L349.048.122"/><polygon points="341.255 190.09 174.777 106.803 8.299 190.09 -7.289 158.897 135.808 87.308 -7.289 15.718 8.299 -15.474 174.777 67.812 341.255 -15.474 356.842 15.718 213.745 87.308 356.842 158.897 341.255 190.09" style="fill:#fff;"/></g><g style="clip-path:url(#c);"><path d="M.505.122l348.543,174.371M.505,174.493L349.048.122"/><polygon points="343.853 184.891 174.777 100.305 5.701 184.891 -4.691 164.096 148.798 87.308 -4.691 10.519 5.701 -10.276 174.777 74.311 343.853 -10.276 354.244 10.519 200.755 87.308 354.244 164.096 343.853 184.891" style="fill:#c8102e;"/></g><g style="clip-path:url(#d);"><path d="M174.777.122v174.371M.505,87.308h348.543"/><polygon points="203.822 174.493 145.731 174.493 145.731 116.369 .505 116.369 .505 58.246 145.731 58.246 145.731 .122 203.822 .122 203.822 58.246 349.048 58.246 349.048 116.369 203.822 116.369 203.822 174.493" style="fill:#fff;"/></g><g style="clip-path:url(#e);"><path d="M174.777.122v174.371M.505,87.308h348.543"/><polygon points="192.204 174.493 157.349 174.493 157.349 104.745 .505 104.745 .505 69.87 157.349 69.87 157.349 .122 192.204 .122 192.204 69.87 349.048 69.87 349.048 104.745 192.204 104.745 192.204 174.493" style="fill:#c8102e;"/></g><g id="f"><g id="g"><path d="M523.32,61.294v13.194l26.373-13.194h-26.373Z" style="fill:#fff;"/><path d="M528.35,76.809l-7.751-10.674,29.087-4.836-21.336,15.511Z" style="fill:#fff;"/></g><g id="h"><path d="M523.32,61.294v13.194l-26.373-13.194h26.373Z" style="fill:#fff;"/><path d="M518.29,76.809l7.751-10.674-29.087-4.836,21.336,15.511Z" style="fill:#fff;"/></g><g id="i"><path d="M531.472,67.22l-12.541,4.077,20.691,21.019-8.15-25.097Z" style="fill:#fff;"/><path d="M518.279,76.801l7.751-10.674,13.585,26.185-21.336-15.511Z" style="fill:#fff;"/></g><g id="j"><path d="M515.168,67.22l12.541,4.077-4.391-29.174-8.15,25.097Z" style="fill:#fff;"/><path d="M531.47,67.228l-12.541,4.077,4.391-29.174,8.15,25.097Z" style="fill:#fff;"/></g><g id="k"><path d="M515.168,67.22l12.541,4.077-20.691,21.019,8.15-25.097Z" style="fill:#fff;"/><path d="M528.361,76.801l-7.751-10.674-13.585,26.185,21.336-15.511Z" style="fill:#fff;"/></g></g><g id="l"><g id="m"><path d="M523.32,64.203v8.719l17.427-8.719h-17.427Z" style="fill:#c8102e;"/><path d="M526.644,74.456l-5.122-7.053,19.221-3.196-14.099,10.249Z" style="fill:#c8102e;"/></g><g id="n"><path d="M523.32,64.203v8.719l-17.427-8.719h17.427Z" style="fill:#c8102e;"/><path d="M519.996,74.456l5.122-7.053-19.221-3.196,14.099,10.249Z" style="fill:#c8102e;"/></g><g id="o"><path d="M528.707,68.119l-8.287,2.694,13.672,13.89-5.385-16.584Z" style="fill:#c8102e;"/><path d="M519.989,74.45l5.122-7.053,8.977,17.303-14.099-10.249Z" style="fill:#c8102e;"/></g><g id="p"><path d="M517.933,68.119l8.287,2.694-2.902-19.278-5.385,16.584Z" style="fill:#c8102e;"/><path d="M528.705,68.125l-8.287,2.694,2.902-19.278,5.385,16.584Z" style="fill:#c8102e;"/></g><g id="q"><path d="M517.933,68.119l8.287,2.694-13.672,13.89,5.385-16.584Z" style="fill:#c8102e;"/><path d="M526.651,74.45l-5.122-7.053-8.977,17.303,14.099-10.249Z" style="fill:#c8102e;"/></g></g><g id="r"><g id="s"><path d="M592.351,122.28v11.741l23.469-11.741h-23.469Z" style="fill:#fff;"/><path d="M596.826,136.087l-6.897-9.499,25.884-4.304-18.986,13.802Z" style="fill:#fff;"/></g><g id="t"><path d="M592.351,122.28v11.741l-23.469-11.741h23.469Z" style="fill:#fff;"/><path d="M587.875,136.087l6.897-9.499-25.884-4.304,18.986,13.802Z" style="fill:#fff;"/></g><g id="u"><path d="M599.605,127.554l-11.16,3.628,18.412,18.705-7.252-22.333Z" style="fill:#fff;"/><path d="M587.865,136.079l6.897-9.499,12.089,23.301-18.986-13.802Z" style="fill:#fff;"/></g><g id="v"><path d="M585.097,127.554l11.16,3.628-3.908-25.961-7.252,22.333Z" style="fill:#fff;"/><path d="M599.603,127.561l-11.16,3.628,3.908-25.961,7.252,22.333Z" style="fill:#fff;"/></g><g id="w"><path d="M585.097,127.554l11.16,3.628-18.412,18.705,7.252-22.333Z" style="fill:#fff;"/><path d="M596.837,136.079l-6.897-9.499-12.089,23.301,18.986-13.802Z" style="fill:#fff;"/></g></g><g id="x"><g id="y"><path d="M592.351,125.189v7.265l14.523-7.265h-14.523Z" style="fill:#c8102e;"/><path d="M595.12,133.733l-4.268-5.878,16.017-2.663-11.749,8.541Z" style="fill:#c8102e;"/></g><g id="z"><path d="M592.351,125.189v7.265l-14.523-7.265h14.523Z" style="fill:#c8102e;"/><path d="M589.581,133.733l4.268-5.878-16.017-2.663,11.749,8.541Z" style="fill:#c8102e;"/></g><g id="aa"><path d="M596.839,128.453l-6.906,2.245,11.394,11.575-4.488-13.82Z" style="fill:#c8102e;"/><path d="M589.575,133.728l4.268-5.878,7.481,14.419-11.749-8.541Z" style="fill:#c8102e;"/></g><g id="ab"><path d="M587.862,128.453l6.906,2.245-2.418-16.065-4.488,13.82Z" style="fill:#c8102e;"/><path d="M596.838,128.457l-6.906,2.245,2.418-16.065,4.488,13.82Z" style="fill:#c8102e;"/></g><g id="ac"><path d="M587.862,128.453l6.906,2.245-11.394,11.575,4.488-13.82Z" style="fill:#c8102e;"/><path d="M595.127,133.728l-4.268-5.878-7.481,14.419,11.749-8.541Z" style="fill:#c8102e;"/></g></g><g id="ad"><g id="ae"><path d="M442.785,142.368v13.194l26.373-13.194h-26.373Z" style="fill:#fff;"/><path d="M447.815,157.883l-7.751-10.674,29.087-4.836-21.336,15.511Z" style="fill:#fff;"/></g><g id="af"><path d="M442.785,142.368v13.194l-26.373-13.194h26.373Z" style="fill:#fff;"/><path d="M437.755,157.883l7.751-10.674-29.087-4.836,21.336,15.511Z" style="fill:#fff;"/></g><g id="ag"><path d="M450.937,148.294l-12.541,4.077,20.691,21.019-8.15-25.097Z" style="fill:#fff;"/><path d="M437.744,157.875l7.751-10.674,13.585,26.185-21.336-15.511Z" style="fill:#fff;"/></g><g id="ah"><path d="M434.633,148.294l12.541,4.077-4.391-29.174-8.15,25.097Z" style="fill:#fff;"/><path d="M450.935,148.302l-12.541,4.077,4.391-29.174,8.15,25.097Z" style="fill:#fff;"/></g><g id="ai"><path d="M434.633,148.294l12.541,4.077-20.691,21.019,8.15-25.097Z" style="fill:#fff;"/><path d="M447.826,157.875l-7.751-10.674-13.585,26.185,21.336-15.511Z" style="fill:#fff;"/></g></g><g id="aj"><g id="ak"><path d="M442.785,145.277v8.719l17.427-8.719h-17.427Z" style="fill:#c8102e;"/><path d="M446.108,155.529l-5.122-7.053,19.221-3.196-14.099,10.249Z" style="fill:#c8102e;"/></g><g id="al"><path d="M442.785,145.277v8.719l-17.427-8.719h17.427Z" style="fill:#c8102e;"/><path d="M439.461,155.529l5.122-7.053-19.221-3.196,14.099,10.249Z" style="fill:#c8102e;"/></g><g id="am"><path d="M448.171,149.193l-8.287,2.694,13.672,13.89-5.385-16.584Z" style="fill:#c8102e;"/><path d="M439.454,155.524l5.122-7.053,8.977,17.303-14.099-10.249Z" style="fill:#c8102e;"/></g><g id="an"><path d="M437.398,149.193l8.287,2.694-2.902-19.278-5.385,16.584Z" style="fill:#c8102e;"/><path d="M448.17,149.198l-8.287,2.694,2.902-19.278,5.385,16.584Z" style="fill:#c8102e;"/></g><g id="ao"><path d="M437.398,149.193l8.287,2.694-13.672,13.89,5.385-16.584Z" style="fill:#c8102e;"/><path d="M446.116,155.524l-5.122-7.053-8.977,17.303,14.099-10.249Z" style="fill:#c8102e;"/></g></g><g id="ap"><g id="aq"><path d="M523.32,269.595v14.647l29.278-14.647h-29.278Z" style="fill:#fff;"/><path d="M528.904,286.819l-8.604-11.85,32.291-5.369-23.686,17.219Z" style="fill:#fff;"/></g><g id="ar"><path d="M523.32,269.595v14.647l-29.278-14.647h29.278Z" style="fill:#fff;"/><path d="M517.736,286.819l8.604-11.85-32.291-5.369,23.686,17.219Z" style="fill:#fff;"/></g><g id="as"><path d="M532.37,276.174l-13.922,4.526,22.97,23.334-9.047-27.861Z" style="fill:#fff;"/><path d="M517.724,286.81l8.604-11.85,15.082,29.069-23.686-17.219Z" style="fill:#fff;"/></g><g id="at"><path d="M514.271,276.174l13.922,4.526-4.875-32.387-9.047,27.861Z" style="fill:#fff;"/><path d="M532.367,276.183l-13.922,4.526,4.875-32.387,9.047,27.861Z" style="fill:#fff;"/></g><g id="au"><path d="M514.271,276.174l13.922,4.526-22.97,23.334,9.047-27.861Z" style="fill:#fff;"/><path d="M528.916,286.81l-8.604-11.85-15.082,29.069,23.686-17.219Z" style="fill:#fff;"/></g></g><g id="av"><g id="aw"><path d="M523.32,272.504v10.172l20.332-10.172h-20.332Z" style="fill:#c8102e;"/><path d="M527.198,284.465l-5.975-8.229,22.424-3.728-16.449,11.958Z" style="fill:#c8102e;"/></g><g id="ax"><path d="M523.32,272.504v10.172l-20.332-10.172h20.332Z" style="fill:#c8102e;"/><path d="M519.443,284.465l5.975-8.229-22.424-3.728,16.449,11.958Z" style="fill:#c8102e;"/></g><g id="ay"><path d="M529.604,277.073l-9.668,3.143,15.951,16.204-6.283-19.348Z" style="fill:#c8102e;"/><path d="M519.434,284.459l5.975-8.229,10.473,20.187-16.449-11.958Z" style="fill:#c8102e;"/></g><g id="az"><path d="M517.036,277.073l9.668,3.143-3.385-22.491-6.283,19.348Z" style="fill:#c8102e;"/><path d="M529.603,277.079l-9.668,3.143,3.385-22.491,6.283,19.348Z" style="fill:#c8102e;"/></g><g id="ba"><path d="M517.036,277.073l9.668,3.143-15.951,16.204,6.283-19.348Z" style="fill:#c8102e;"/><path d="M527.206,284.459l-5.975-8.229-10.473,20.187,16.449-11.958Z" style="fill:#c8102e;"/></g></g></svg>